<svg width="1440" height="780" viewBox="0 0 1440 780" fill="none" xmlns="http://www.w3.org/2000/svg">
<g clip-path="url(#clip0_513_2201)">
<rect width="1440" height="780" fill="white"/>
<path fill-rule="evenodd" clip-rule="evenodd" d="M60 0H0V780H60V30H1441V0H60Z" fill="#DDDDDD"/>
<line y1="29.5" x2="1441" y2="29.5" stroke="black" stroke-opacity="0.2"/>
<line y1="59.5" x2="1441" y2="59.5" stroke="black" stroke-opacity="0.2"/>
<line y1="89.5" x2="1441" y2="89.5" stroke="black" stroke-opacity="0.2"/>
<line y1="119.5" x2="1441" y2="119.5" stroke="black" stroke-opacity="0.2"/>
<line y1="149.5" x2="1441" y2="149.5" stroke="black" stroke-opacity="0.2"/>
<line y1="179.5" x2="1441" y2="179.5" stroke="black" stroke-opacity="0.2"/>
<line y1="209.5" x2="1441" y2="209.5" stroke="black" stroke-opacity="0.2"/>
<line y1="239.5" x2="1441" y2="239.5" stroke="black" stroke-opacity="0.2"/>
<line y1="269.5" x2="1441" y2="269.5" stroke="black" stroke-opacity="0.2"/>
<line y1="299.5" x2="1441" y2="299.5" stroke="black" stroke-opacity="0.2"/>
<line y1="329.5" x2="1441" y2="329.5" stroke="black" stroke-opacity="0.2"/>
<line y1="359.5" x2="1441" y2="359.5" stroke="black" stroke-opacity="0.2"/>
<line y1="389.5" x2="1441" y2="389.5" stroke="black" stroke-opacity="0.2"/>
<line y1="419.5" x2="1441" y2="419.5" stroke="black" stroke-opacity="0.2"/>
<line y1="449.5" x2="1441" y2="449.5" stroke="black" stroke-opacity="0.2"/>
<line y1="479.5" x2="1441" y2="479.5" stroke="black" stroke-opacity="0.2"/>
<line y1="509.5" x2="1441" y2="509.5" stroke="black" stroke-opacity="0.2"/>
<line y1="539.5" x2="1441" y2="539.5" stroke="black" stroke-opacity="0.2"/>
<line y1="569.5" x2="1441" y2="569.5" stroke="black" stroke-opacity="0.2"/>
<line y1="599.5" x2="1441" y2="599.5" stroke="black" stroke-opacity="0.2"/>
<line y1="629.5" x2="1441" y2="629.5" stroke="black" stroke-opacity="0.2"/>
<line y1="659.5" x2="1441" y2="659.5" stroke="black" stroke-opacity="0.2"/>
<line y1="689.5" x2="1441" y2="689.5" stroke="black" stroke-opacity="0.2"/>
<line y1="719.5" x2="1441" y2="719.5" stroke="black" stroke-opacity="0.2"/>
<line y1="749.5" x2="1441" y2="749.5" stroke="black" stroke-opacity="0.2"/>
<line y1="779.5" x2="1441" y2="779.5" stroke="black" stroke-opacity="0.2"/>
<path d="M31.4297 50H30.1855V41.3867H30.1309L27.7246 42.9863V41.7422L30.1855 40.1016H31.4297V50Z" fill="black"/>
<path d="M26.916 79.0977L30.293 75.543C30.735 75.069 31.0723 74.6862 31.3047 74.3945C31.5417 74.1029 31.7217 73.8249 31.8447 73.5605C31.9678 73.2917 32.0293 73.0091 32.0293 72.7129C32.0293 72.3802 31.9427 72.0885 31.7695 71.8379C31.5964 71.5827 31.3594 71.3844 31.0586 71.2432C30.7624 71.1019 30.4297 71.0312 30.0605 71.0312C29.6732 71.0312 29.3337 71.1087 29.042 71.2637C28.7549 71.4186 28.5316 71.6374 28.3721 71.9199C28.2126 72.1979 28.1328 72.5215 28.1328 72.8906H26.9707C26.9661 72.3164 27.0983 71.8083 27.3672 71.3662C27.6406 70.9242 28.0166 70.5801 28.4951 70.334C28.9736 70.0879 29.5091 69.9648 30.1016 69.9648C30.6895 69.9648 31.2158 70.0856 31.6807 70.3271C32.1501 70.5687 32.5169 70.8991 32.7812 71.3184C33.0456 71.7376 33.1777 72.2025 33.1777 72.7129C33.1732 73.0911 33.1025 73.4535 32.9658 73.7998C32.8337 74.1416 32.6058 74.5221 32.2822 74.9414C31.9587 75.3607 31.5007 75.8757 30.9082 76.4863L28.6387 78.8242V78.9062H33.3555V80H26.9297L26.916 79.0977Z" fill="black"/>
<path d="M30.3477 110.137C29.696 110.137 29.1126 110.027 28.5977 109.809C28.0872 109.59 27.6816 109.282 27.3809 108.886C27.0801 108.485 26.9206 108.027 26.9023 107.512H28.1465C28.1693 107.822 28.2786 108.09 28.4746 108.318C28.6751 108.546 28.9349 108.724 29.2539 108.852C29.5775 108.979 29.9375 109.043 30.334 109.043C30.7669 109.043 31.1543 108.97 31.4961 108.824C31.8424 108.678 32.1113 108.473 32.3027 108.209C32.4941 107.945 32.5898 107.644 32.5898 107.307C32.5853 106.947 32.4896 106.628 32.3027 106.35C32.1204 106.067 31.847 105.848 31.4824 105.693C31.1178 105.538 30.6849 105.461 30.1836 105.461H29.377V104.381H30.1836C30.5801 104.381 30.9333 104.31 31.2432 104.169C31.5576 104.028 31.7992 103.829 31.9678 103.574C32.1364 103.314 32.2207 103.018 32.2207 102.686C32.2207 102.357 32.1455 102.068 31.9951 101.817C31.8447 101.567 31.6305 101.373 31.3525 101.236C31.0745 101.1 30.7487 101.031 30.375 101.031C30.0195 101.036 29.6868 101.102 29.377 101.229C29.0671 101.353 28.8141 101.533 28.6182 101.77C28.4222 102.002 28.3151 102.275 28.2969 102.59H27.1074C27.1257 102.079 27.2852 101.624 27.5859 101.223C27.8867 100.822 28.2832 100.512 28.7754 100.293C29.2676 100.074 29.8053 99.9648 30.3887 99.9648C30.9993 99.9648 31.5348 100.086 31.9951 100.327C32.4554 100.569 32.8063 100.892 33.0479 101.298C33.2939 101.703 33.4147 102.143 33.4102 102.617C33.4147 102.986 33.3486 103.324 33.2119 103.629C33.0798 103.93 32.8861 104.185 32.6309 104.395C32.3757 104.604 32.0749 104.759 31.7285 104.859V104.928C32.1523 104.992 32.5192 105.131 32.8291 105.345C33.1436 105.559 33.3828 105.835 33.5469 106.172C33.7109 106.509 33.793 106.887 33.793 107.307C33.793 107.84 33.6449 108.323 33.3486 108.756C33.0524 109.184 32.64 109.521 32.1113 109.768C31.5872 110.014 30.9993 110.137 30.3477 110.137Z" fill="black"/>
<path d="M26.6836 136.965L31.1406 130.102H31.8789V131.66H31.3594L28.0098 136.814V136.896H34.0391V137.977H26.6836V136.965ZM31.4824 137.676V137.197V130.102H32.6582V140H31.4824V137.676Z" fill="black"/>
<path d="M30.1562 170.137C29.5684 170.137 29.0329 170.023 28.5498 169.795C28.0713 169.567 27.6885 169.255 27.4014 168.858C27.1188 168.462 26.9661 168.013 26.9434 167.512H28.1328C28.1602 167.803 28.2673 168.065 28.4541 168.298C28.641 168.53 28.8825 168.715 29.1787 168.852C29.4795 168.988 29.8053 169.057 30.1562 169.057C30.5801 169.057 30.9583 168.961 31.291 168.77C31.6283 168.578 31.8926 168.316 32.084 167.983C32.2754 167.651 32.3711 167.279 32.3711 166.869C32.3711 166.445 32.2731 166.065 32.0771 165.728C31.8812 165.386 31.6077 165.117 31.2568 164.921C30.9059 164.725 30.5117 164.627 30.0742 164.627C29.6413 164.618 29.2699 164.686 28.96 164.832C28.6501 164.973 28.4062 165.201 28.2285 165.516H27.0391L27.7363 160.102H33.0957V161.195H28.7617L28.3926 164.094H28.4883C28.7161 163.921 28.9873 163.782 29.3018 163.677C29.6208 163.572 29.9512 163.52 30.293 163.52C30.9128 163.52 31.4733 163.661 31.9746 163.943C32.4759 164.226 32.8678 164.622 33.1504 165.133C33.4329 165.639 33.5742 166.208 33.5742 166.842C33.5742 167.471 33.4261 168.036 33.1299 168.537C32.8337 169.038 32.4258 169.43 31.9062 169.713C31.3913 169.995 30.8079 170.137 30.1562 170.137Z" fill="black"/>
<path d="M30.375 200.137C29.737 200.128 29.1491 199.977 28.6113 199.686C28.0736 199.394 27.6315 198.899 27.2852 198.202C26.9388 197.505 26.7656 196.582 26.7656 195.434C26.7656 194.276 26.9183 193.287 27.2236 192.467C27.529 191.646 27.9619 191.024 28.5225 190.601C29.083 190.177 29.7507 189.965 30.5254 189.965C31.0951 189.965 31.6077 190.074 32.0635 190.293C32.5238 190.512 32.8975 190.822 33.1846 191.223C33.4717 191.619 33.6562 192.075 33.7383 192.59H32.5215C32.444 192.289 32.3164 192.022 32.1387 191.79C31.9655 191.558 31.7422 191.378 31.4688 191.25C31.1953 191.122 30.8809 191.059 30.5254 191.059C29.9831 191.059 29.516 191.207 29.124 191.503C28.7367 191.799 28.4404 192.232 28.2354 192.802C28.0303 193.367 27.9277 194.044 27.9277 194.832H28.0508C28.2422 194.554 28.4678 194.317 28.7275 194.121C28.9873 193.921 29.2744 193.77 29.5889 193.67C29.9079 193.57 30.2428 193.52 30.5938 193.52C31.1771 193.52 31.7148 193.661 32.207 193.943C32.6992 194.226 33.0911 194.618 33.3828 195.119C33.6745 195.616 33.8203 196.176 33.8203 196.801C33.8203 197.425 33.6768 197.993 33.3896 198.503C33.1025 199.009 32.6969 199.41 32.1729 199.706C31.6533 199.998 31.054 200.141 30.375 200.137ZM30.375 199.057C30.7943 199.057 31.1748 198.954 31.5166 198.749C31.8584 198.544 32.1296 198.273 32.3301 197.936C32.5306 197.594 32.6309 197.22 32.6309 196.814C32.6309 196.413 32.5352 196.044 32.3438 195.707C32.1523 195.37 31.8857 195.101 31.5439 194.9C31.2021 194.7 30.8216 194.6 30.4023 194.6C29.9785 194.6 29.5911 194.702 29.2402 194.907C28.8939 195.112 28.6159 195.388 28.4062 195.734C28.2012 196.076 28.0964 196.441 28.0918 196.828C28.0918 197.215 28.1921 197.58 28.3926 197.922C28.5931 198.259 28.8665 198.533 29.2129 198.742C29.5592 198.952 29.9466 199.057 30.375 199.057Z" fill="black"/>
<path d="M31.7832 221.264V221.195H26.5469V220.102H33.0547V221.25L28.5293 230H27.2441L31.7832 221.264Z" fill="black"/>
<path d="M30.2383 260.137C29.5547 260.137 28.9463 260.018 28.4131 259.781C27.8799 259.544 27.4652 259.216 27.1689 258.797C26.8727 258.378 26.7246 257.904 26.7246 257.375C26.7246 256.956 26.8135 256.564 26.9912 256.199C27.1689 255.835 27.4105 255.536 27.7158 255.304C28.0212 255.067 28.3607 254.919 28.7344 254.859V254.805C28.4108 254.732 28.126 254.588 27.8799 254.374C27.6383 254.16 27.4492 253.898 27.3125 253.588C27.1758 253.278 27.1074 252.945 27.1074 252.59C27.1074 252.093 27.2419 251.646 27.5107 251.25C27.7796 250.849 28.151 250.535 28.625 250.307C29.1035 250.079 29.6413 249.965 30.2383 249.965C30.8307 249.965 31.3662 250.079 31.8447 250.307C32.3232 250.535 32.6969 250.849 32.9658 251.25C33.2393 251.646 33.3783 252.093 33.3828 252.59C33.3783 252.945 33.3053 253.278 33.1641 253.588C33.0273 253.898 32.8359 254.16 32.5898 254.374C32.3438 254.588 32.0612 254.732 31.7422 254.805V254.859C32.1113 254.919 32.4486 255.067 32.7539 255.304C33.0638 255.536 33.3076 255.835 33.4854 256.199C33.6676 256.564 33.7611 256.956 33.7656 257.375C33.7611 257.904 33.6084 258.378 33.3076 258.797C33.0114 259.216 32.5944 259.544 32.0566 259.781C31.5234 260.018 30.9173 260.137 30.2383 260.137ZM30.2383 259.057C30.7031 259.057 31.1087 258.981 31.4551 258.831C31.8014 258.681 32.068 258.476 32.2549 258.216C32.4417 257.956 32.5352 257.653 32.5352 257.307C32.5352 256.947 32.4372 256.623 32.2412 256.336C32.0452 256.044 31.7718 255.816 31.4209 255.652C31.07 255.488 30.6758 255.406 30.2383 255.406C29.8008 255.406 29.4089 255.488 29.0625 255.652C28.7161 255.816 28.4427 256.044 28.2422 256.336C28.0462 256.623 27.9505 256.947 27.9551 257.307C27.9505 257.653 28.0394 257.956 28.2217 258.216C28.4085 258.476 28.6729 258.681 29.0146 258.831C29.361 258.981 29.7689 259.057 30.2383 259.057ZM30.2383 254.367C30.612 254.367 30.9469 254.294 31.2432 254.148C31.5394 254.003 31.7695 253.804 31.9336 253.554C32.0977 253.303 32.1797 253.014 32.1797 252.686C32.1797 252.357 32.0999 252.068 31.9404 251.817C31.7809 251.567 31.5531 251.373 31.2568 251.236C30.9606 251.1 30.6211 251.031 30.2383 251.031C29.8509 251.031 29.5114 251.1 29.2197 251.236C28.9326 251.373 28.707 251.567 28.543 251.817C28.3789 252.068 28.2969 252.357 28.2969 252.686C28.2969 253.014 28.3812 253.303 28.5498 253.554C28.7184 253.804 28.9486 254.003 29.2402 254.148C29.5319 254.294 29.8646 254.367 30.2383 254.367Z" fill="black"/>
<path d="M30.2246 279.965C30.8535 279.974 31.4391 280.124 31.9814 280.416C32.5238 280.708 32.9658 281.202 33.3076 281.899C33.6494 282.592 33.8203 283.51 33.8203 284.654C33.8203 285.812 33.6699 286.801 33.3691 287.621C33.0684 288.441 32.6354 289.066 32.0703 289.494C31.5052 289.923 30.8353 290.137 30.0605 290.137C29.4863 290.137 28.9714 290.025 28.5156 289.802C28.0599 289.578 27.6885 289.271 27.4014 288.879C27.1143 288.482 26.9297 288.022 26.8477 287.498H28.0645C28.1374 287.803 28.2627 288.072 28.4404 288.305C28.6182 288.533 28.8438 288.713 29.1172 288.845C29.3906 288.977 29.7051 289.043 30.0605 289.043C30.5983 289.043 31.0632 288.893 31.4551 288.592C31.847 288.291 32.1455 287.858 32.3506 287.293C32.5602 286.723 32.6673 286.04 32.6719 285.242H32.5352C32.3438 285.516 32.1182 285.75 31.8584 285.946C31.5986 286.142 31.3115 286.293 30.9971 286.397C30.6826 286.502 30.3522 286.555 30.0059 286.555C29.418 286.555 28.8757 286.413 28.3789 286.131C27.8867 285.848 27.4948 285.459 27.2031 284.962C26.9115 284.465 26.7656 283.907 26.7656 283.287C26.7656 282.672 26.9092 282.111 27.1963 281.605C27.4834 281.095 27.889 280.694 28.4131 280.402C28.9372 280.106 29.541 279.96 30.2246 279.965ZM30.2246 281.045C29.8008 281.045 29.4157 281.145 29.0693 281.346C28.7275 281.546 28.4564 281.817 28.2559 282.159C28.0599 282.501 27.9642 282.872 27.9688 283.273C27.9688 283.679 28.0645 284.05 28.2559 284.388C28.4473 284.72 28.7093 284.985 29.042 285.181C29.3792 285.377 29.7598 285.475 30.1836 285.475C30.6029 285.475 30.988 285.37 31.3389 285.16C31.6898 284.951 31.9678 284.675 32.1729 284.333C32.3779 283.991 32.4805 283.629 32.4805 283.246C32.4805 282.868 32.3825 282.51 32.1865 282.173C31.9906 281.831 31.7194 281.558 31.373 281.353C31.0312 281.147 30.6484 281.045 30.2246 281.045Z" fill="black"/>
<path d="M27.4297 320H26.1855V311.387H26.1309L23.7246 312.986V311.742L26.1855 310.102H27.4297V320ZM33.3086 320.137C32.5794 320.137 31.9574 319.938 31.4424 319.542C30.9274 319.146 30.5332 318.567 30.2598 317.806C29.9863 317.045 29.8496 316.126 29.8496 315.051C29.8496 313.989 29.9863 313.077 30.2598 312.316C30.5332 311.551 30.9274 310.967 31.4424 310.566C31.9619 310.165 32.584 309.965 33.3086 309.965C34.0286 309.965 34.6484 310.165 35.168 310.566C35.6875 310.967 36.084 311.551 36.3574 312.316C36.6309 313.077 36.7676 313.989 36.7676 315.051C36.7676 316.126 36.6331 317.045 36.3643 317.806C36.0954 318.567 35.7012 319.146 35.1816 319.542C34.6621 319.938 34.0378 320.137 33.3086 320.137ZM33.3086 319.043C33.7826 319.043 34.1904 318.888 34.5322 318.578C34.874 318.268 35.1315 317.815 35.3047 317.218C35.4779 316.621 35.5645 315.898 35.5645 315.051C35.5645 314.203 35.4756 313.479 35.2979 312.877C35.1201 312.275 34.8626 311.817 34.5254 311.503C34.1882 311.188 33.7826 311.031 33.3086 311.031C32.8346 311.031 32.429 311.188 32.0918 311.503C31.7546 311.817 31.4948 312.275 31.3125 312.877C31.1302 313.479 31.0391 314.203 31.0391 315.051C31.0391 315.898 31.1302 316.621 31.3125 317.218C31.4948 317.815 31.7523 318.268 32.085 318.578C32.4222 318.888 32.8301 319.043 33.3086 319.043Z" fill="black"/>
<path d="M28.4297 350H27.1855V341.387H27.1309L24.7246 342.986V341.742L27.1855 340.102H28.4297V350ZM34.5684 350H33.3242V341.387H33.2695L30.8633 342.986V341.742L33.3242 340.102H34.5684V350Z" fill="black"/>
<path d="M27.4297 380H26.1855V371.387H26.1309L23.7246 372.986V371.742L26.1855 370.102H27.4297V380ZM30.0547 379.098L33.4316 375.543C33.8737 375.069 34.2109 374.686 34.4434 374.395C34.6803 374.103 34.8604 373.825 34.9834 373.561C35.1064 373.292 35.168 373.009 35.168 372.713C35.168 372.38 35.0814 372.089 34.9082 371.838C34.735 371.583 34.498 371.384 34.1973 371.243C33.901 371.102 33.5684 371.031 33.1992 371.031C32.8118 371.031 32.4723 371.109 32.1807 371.264C31.8936 371.419 31.6702 371.637 31.5107 371.92C31.3512 372.198 31.2715 372.521 31.2715 372.891H30.1094C30.1048 372.316 30.237 371.808 30.5059 371.366C30.7793 370.924 31.1553 370.58 31.6338 370.334C32.1123 370.088 32.6478 369.965 33.2402 369.965C33.8281 369.965 34.3545 370.086 34.8193 370.327C35.2887 370.569 35.6556 370.899 35.9199 371.318C36.1842 371.738 36.3164 372.202 36.3164 372.713C36.3118 373.091 36.2412 373.453 36.1045 373.8C35.9723 374.142 35.7445 374.522 35.4209 374.941C35.0973 375.361 34.6393 375.876 34.0469 376.486L31.7773 378.824V378.906H36.4941V380H30.0684L30.0547 379.098Z" fill="black"/>
<path d="M27.4297 410H26.1855V401.387H26.1309L23.7246 402.986V401.742L26.1855 400.102H27.4297V410ZM33.4863 410.137C32.8346 410.137 32.2513 410.027 31.7363 409.809C31.2259 409.59 30.8203 409.282 30.5195 408.886C30.2188 408.485 30.0592 408.027 30.041 407.512H31.2852C31.3079 407.822 31.4173 408.09 31.6133 408.318C31.8138 408.546 32.0736 408.724 32.3926 408.852C32.7161 408.979 33.0762 409.043 33.4727 409.043C33.9056 409.043 34.293 408.97 34.6348 408.824C34.9811 408.678 35.25 408.473 35.4414 408.209C35.6328 407.945 35.7285 407.644 35.7285 407.307C35.724 406.947 35.6283 406.628 35.4414 406.35C35.2591 406.067 34.9857 405.848 34.6211 405.693C34.2565 405.538 33.8236 405.461 33.3223 405.461H32.5156V404.381H33.3223C33.7188 404.381 34.0719 404.31 34.3818 404.169C34.6963 404.028 34.9378 403.829 35.1064 403.574C35.2751 403.314 35.3594 403.018 35.3594 402.686C35.3594 402.357 35.2842 402.068 35.1338 401.817C34.9834 401.567 34.7692 401.373 34.4912 401.236C34.2132 401.1 33.8874 401.031 33.5137 401.031C33.1582 401.036 32.8255 401.102 32.5156 401.229C32.2057 401.353 31.9528 401.533 31.7568 401.77C31.5609 402.002 31.4538 402.275 31.4355 402.59H30.2461C30.2643 402.079 30.4238 401.624 30.7246 401.223C31.0254 400.822 31.4219 400.512 31.9141 400.293C32.4062 400.074 32.944 399.965 33.5273 399.965C34.138 399.965 34.6735 400.086 35.1338 400.327C35.5941 400.569 35.945 400.892 36.1865 401.298C36.4326 401.703 36.5534 402.143 36.5488 402.617C36.5534 402.986 36.4873 403.324 36.3506 403.629C36.2184 403.93 36.0247 404.185 35.7695 404.395C35.5143 404.604 35.2135 404.759 34.8672 404.859V404.928C35.291 404.992 35.6579 405.131 35.9678 405.345C36.2822 405.559 36.5215 405.835 36.6855 406.172C36.8496 406.509 36.9316 406.887 36.9316 407.307C36.9316 407.84 36.7835 408.323 36.4873 408.756C36.1911 409.184 35.7786 409.521 35.25 409.768C34.7259 410.014 34.138 410.137 33.4863 410.137Z" fill="black"/>
<path d="M27.4297 440H26.1855V431.387H26.1309L23.7246 432.986V431.742L26.1855 430.102H27.4297V440ZM29.8223 436.965L34.2793 430.102H35.0176V431.66H34.498L31.1484 436.814V436.896H37.1777V437.977H29.8223V436.965ZM34.6211 437.676V437.197V430.102H35.7969V440H34.6211V437.676Z" fill="black"/>
<path d="M27.4297 470H26.1855V461.387H26.1309L23.7246 462.986V461.742L26.1855 460.102H27.4297V470ZM33.2949 470.137C32.707 470.137 32.1715 470.023 31.6885 469.795C31.21 469.567 30.8271 469.255 30.54 468.858C30.2575 468.462 30.1048 468.013 30.082 467.512H31.2715C31.2988 467.803 31.4059 468.065 31.5928 468.298C31.7796 468.53 32.0212 468.715 32.3174 468.852C32.6182 468.988 32.944 469.057 33.2949 469.057C33.7188 469.057 34.097 468.961 34.4297 468.77C34.7669 468.578 35.0312 468.316 35.2227 467.983C35.4141 467.651 35.5098 467.279 35.5098 466.869C35.5098 466.445 35.4118 466.065 35.2158 465.728C35.0199 465.386 34.7464 465.117 34.3955 464.921C34.0446 464.725 33.6504 464.627 33.2129 464.627C32.7799 464.618 32.4085 464.686 32.0986 464.832C31.7887 464.973 31.5449 465.201 31.3672 465.516H30.1777L30.875 460.102H36.2344V461.195H31.9004L31.5312 464.094H31.627C31.8548 463.921 32.126 463.782 32.4404 463.677C32.7594 463.572 33.0898 463.52 33.4316 463.52C34.0514 463.52 34.612 463.661 35.1133 463.943C35.6146 464.226 36.0065 464.622 36.2891 465.133C36.5716 465.639 36.7129 466.208 36.7129 466.842C36.7129 467.471 36.5648 468.036 36.2686 468.537C35.9723 469.038 35.5645 469.43 35.0449 469.713C34.5299 469.995 33.9466 470.137 33.2949 470.137Z" fill="black"/>
<path d="M27.4297 500H26.1855V491.387H26.1309L23.7246 492.986V491.742L26.1855 490.102H27.4297V500ZM33.5137 500.137C32.8757 500.128 32.2878 499.977 31.75 499.686C31.2122 499.394 30.7702 498.899 30.4238 498.202C30.0775 497.505 29.9043 496.582 29.9043 495.434C29.9043 494.276 30.057 493.287 30.3623 492.467C30.6676 491.646 31.1006 491.024 31.6611 490.601C32.2217 490.177 32.8893 489.965 33.6641 489.965C34.2337 489.965 34.7464 490.074 35.2021 490.293C35.6624 490.512 36.0361 490.822 36.3232 491.223C36.6104 491.619 36.7949 492.075 36.877 492.59H35.6602C35.5827 492.289 35.4551 492.022 35.2773 491.79C35.1042 491.558 34.8809 491.378 34.6074 491.25C34.334 491.122 34.0195 491.059 33.6641 491.059C33.1217 491.059 32.6546 491.207 32.2627 491.503C31.8753 491.799 31.5791 492.232 31.374 492.802C31.1689 493.367 31.0664 494.044 31.0664 494.832H31.1895C31.3809 494.554 31.6064 494.317 31.8662 494.121C32.126 493.921 32.4131 493.77 32.7275 493.67C33.0465 493.57 33.3815 493.52 33.7324 493.52C34.3158 493.52 34.8535 493.661 35.3457 493.943C35.8379 494.226 36.2298 494.618 36.5215 495.119C36.8132 495.616 36.959 496.176 36.959 496.801C36.959 497.425 36.8154 497.993 36.5283 498.503C36.2412 499.009 35.8356 499.41 35.3115 499.706C34.792 499.998 34.1927 500.141 33.5137 500.137ZM33.5137 499.057C33.9329 499.057 34.3135 498.954 34.6553 498.749C34.9971 498.544 35.2682 498.273 35.4688 497.936C35.6693 497.594 35.7695 497.22 35.7695 496.814C35.7695 496.413 35.6738 496.044 35.4824 495.707C35.291 495.37 35.0244 495.101 34.6826 494.9C34.3408 494.7 33.9603 494.6 33.541 494.6C33.1172 494.6 32.7298 494.702 32.3789 494.907C32.0326 495.112 31.7546 495.388 31.5449 495.734C31.3398 496.076 31.235 496.441 31.2305 496.828C31.2305 497.215 31.3307 497.58 31.5312 497.922C31.7318 498.259 32.0052 498.533 32.3516 498.742C32.6979 498.952 33.0853 499.057 33.5137 499.057Z" fill="black"/>
<path d="M27.4297 530H26.1855V521.387H26.1309L23.7246 522.986V521.742L26.1855 520.102H27.4297V530ZM34.9219 521.264V521.195H29.6855V520.102H36.1934V521.25L31.668 530H30.3828L34.9219 521.264Z" fill="black"/>
<path d="M27.4297 560H26.1855V551.387H26.1309L23.7246 552.986V551.742L26.1855 550.102H27.4297V560ZM33.377 560.137C32.6934 560.137 32.085 560.018 31.5518 559.781C31.0186 559.544 30.6038 559.216 30.3076 558.797C30.0114 558.378 29.8633 557.904 29.8633 557.375C29.8633 556.956 29.9521 556.564 30.1299 556.199C30.3076 555.835 30.5492 555.536 30.8545 555.304C31.1598 555.067 31.4993 554.919 31.873 554.859V554.805C31.5495 554.732 31.2646 554.588 31.0186 554.374C30.777 554.16 30.5879 553.898 30.4512 553.588C30.3145 553.278 30.2461 552.945 30.2461 552.59C30.2461 552.093 30.3805 551.646 30.6494 551.25C30.9183 550.849 31.2897 550.535 31.7637 550.307C32.2422 550.079 32.7799 549.965 33.377 549.965C33.9694 549.965 34.5049 550.079 34.9834 550.307C35.4619 550.535 35.8356 550.849 36.1045 551.25C36.3779 551.646 36.5169 552.093 36.5215 552.59C36.5169 552.945 36.444 553.278 36.3027 553.588C36.166 553.898 35.9746 554.16 35.7285 554.374C35.4824 554.588 35.1999 554.732 34.8809 554.805V554.859C35.25 554.919 35.5872 555.067 35.8926 555.304C36.2025 555.536 36.4463 555.835 36.624 556.199C36.8063 556.564 36.8997 556.956 36.9043 557.375C36.8997 557.904 36.7471 558.378 36.4463 558.797C36.1501 559.216 35.7331 559.544 35.1953 559.781C34.6621 560.018 34.056 560.137 33.377 560.137ZM33.377 559.057C33.8418 559.057 34.2474 558.981 34.5938 558.831C34.9401 558.681 35.2067 558.476 35.3936 558.216C35.5804 557.956 35.6738 557.653 35.6738 557.307C35.6738 556.947 35.5758 556.623 35.3799 556.336C35.1839 556.044 34.9105 555.816 34.5596 555.652C34.2087 555.488 33.8145 555.406 33.377 555.406C32.9395 555.406 32.5475 555.488 32.2012 555.652C31.8548 555.816 31.5814 556.044 31.3809 556.336C31.1849 556.623 31.0892 556.947 31.0938 557.307C31.0892 557.653 31.1781 557.956 31.3604 558.216C31.5472 558.476 31.8115 558.681 32.1533 558.831C32.4997 558.981 32.9076 559.057 33.377 559.057ZM33.377 554.367C33.7507 554.367 34.0856 554.294 34.3818 554.148C34.6781 554.003 34.9082 553.804 35.0723 553.554C35.2363 553.303 35.3184 553.014 35.3184 552.686C35.3184 552.357 35.2386 552.068 35.0791 551.817C34.9196 551.567 34.6917 551.373 34.3955 551.236C34.0993 551.1 33.7598 551.031 33.377 551.031C32.9896 551.031 32.6501 551.1 32.3584 551.236C32.0713 551.373 31.8457 551.567 31.6816 551.817C31.5176 552.068 31.4355 552.357 31.4355 552.686C31.4355 553.014 31.5199 553.303 31.6885 553.554C31.8571 553.804 32.0872 554.003 32.3789 554.148C32.6706 554.294 33.0033 554.367 33.377 554.367Z" fill="black"/>
<path d="M27.4297 590H26.1855V581.387H26.1309L23.7246 582.986V581.742L26.1855 580.102H27.4297V590ZM33.3633 579.965C33.9922 579.974 34.5778 580.124 35.1201 580.416C35.6624 580.708 36.1045 581.202 36.4463 581.899C36.7881 582.592 36.959 583.51 36.959 584.654C36.959 585.812 36.8086 586.801 36.5078 587.621C36.207 588.441 35.7741 589.066 35.209 589.494C34.6439 589.923 33.974 590.137 33.1992 590.137C32.625 590.137 32.11 590.025 31.6543 589.802C31.1986 589.578 30.8271 589.271 30.54 588.879C30.2529 588.482 30.0684 588.022 29.9863 587.498H31.2031C31.276 587.803 31.4014 588.072 31.5791 588.305C31.7568 588.533 31.9824 588.713 32.2559 588.845C32.5293 588.977 32.8438 589.043 33.1992 589.043C33.737 589.043 34.2018 588.893 34.5938 588.592C34.9857 588.291 35.2842 587.858 35.4893 587.293C35.6989 586.723 35.806 586.04 35.8105 585.242H35.6738C35.4824 585.516 35.2568 585.75 34.9971 585.946C34.7373 586.142 34.4502 586.293 34.1357 586.397C33.8213 586.502 33.4909 586.555 33.1445 586.555C32.5566 586.555 32.0143 586.413 31.5176 586.131C31.0254 585.848 30.6335 585.459 30.3418 584.962C30.0501 584.465 29.9043 583.907 29.9043 583.287C29.9043 582.672 30.0479 582.111 30.335 581.605C30.6221 581.095 31.0277 580.694 31.5518 580.402C32.0758 580.106 32.6797 579.96 33.3633 579.965ZM33.3633 581.045C32.9395 581.045 32.5544 581.145 32.208 581.346C31.8662 581.546 31.5951 581.817 31.3945 582.159C31.1986 582.501 31.1029 582.872 31.1074 583.273C31.1074 583.679 31.2031 584.05 31.3945 584.388C31.5859 584.72 31.848 584.985 32.1807 585.181C32.5179 585.377 32.8984 585.475 33.3223 585.475C33.7415 585.475 34.1266 585.37 34.4775 585.16C34.8285 584.951 35.1064 584.675 35.3115 584.333C35.5166 583.991 35.6191 583.629 35.6191 583.246C35.6191 582.868 35.5212 582.51 35.3252 582.173C35.1292 581.831 34.8581 581.558 34.5117 581.353C34.1699 581.147 33.7871 581.045 33.3633 581.045Z" fill="black"/>
<path d="M22.916 619.098L26.293 615.543C26.735 615.069 27.0723 614.686 27.3047 614.395C27.5417 614.103 27.7217 613.825 27.8447 613.561C27.9678 613.292 28.0293 613.009 28.0293 612.713C28.0293 612.38 27.9427 612.089 27.7695 611.838C27.5964 611.583 27.3594 611.384 27.0586 611.243C26.7624 611.102 26.4297 611.031 26.0605 611.031C25.6732 611.031 25.3337 611.109 25.042 611.264C24.7549 611.419 24.5316 611.637 24.3721 611.92C24.2126 612.198 24.1328 612.521 24.1328 612.891H22.9707C22.9661 612.316 23.0983 611.808 23.3672 611.366C23.6406 610.924 24.0166 610.58 24.4951 610.334C24.9736 610.088 25.5091 609.965 26.1016 609.965C26.6895 609.965 27.2158 610.086 27.6807 610.327C28.1501 610.569 28.5169 610.899 28.7812 611.318C29.0456 611.738 29.1777 612.202 29.1777 612.713C29.1732 613.091 29.1025 613.453 28.9658 613.8C28.8337 614.142 28.6058 614.522 28.2822 614.941C27.9587 615.361 27.5007 615.876 26.9082 616.486L24.6387 618.824V618.906H29.3555V620H22.9297L22.916 619.098ZM34.3867 620.137C33.6576 620.137 33.0355 619.938 32.5205 619.542C32.0055 619.146 31.6113 618.567 31.3379 617.806C31.0645 617.045 30.9277 616.126 30.9277 615.051C30.9277 613.989 31.0645 613.077 31.3379 612.316C31.6113 611.551 32.0055 610.967 32.5205 610.566C33.04 610.165 33.6621 609.965 34.3867 609.965C35.1068 609.965 35.7266 610.165 36.2461 610.566C36.7656 610.967 37.1621 611.551 37.4355 612.316C37.709 613.077 37.8457 613.989 37.8457 615.051C37.8457 616.126 37.7113 617.045 37.4424 617.806C37.1735 618.567 36.7793 619.146 36.2598 619.542C35.7402 619.938 35.1159 620.137 34.3867 620.137ZM34.3867 619.043C34.8607 619.043 35.2686 618.888 35.6104 618.578C35.9521 618.268 36.2096 617.815 36.3828 617.218C36.556 616.621 36.6426 615.898 36.6426 615.051C36.6426 614.203 36.5537 613.479 36.376 612.877C36.1982 612.275 35.9408 611.817 35.6035 611.503C35.2663 611.188 34.8607 611.031 34.3867 611.031C33.9128 611.031 33.5072 611.188 33.1699 611.503C32.8327 611.817 32.5729 612.275 32.3906 612.877C32.2083 613.479 32.1172 614.203 32.1172 615.051C32.1172 615.898 32.2083 616.621 32.3906 617.218C32.5729 617.815 32.8304 618.268 33.1631 618.578C33.5003 618.888 33.9082 619.043 34.3867 619.043Z" fill="black"/>
<path d="M23.916 649.098L27.293 645.543C27.735 645.069 28.0723 644.686 28.3047 644.395C28.5417 644.103 28.7217 643.825 28.8447 643.561C28.9678 643.292 29.0293 643.009 29.0293 642.713C29.0293 642.38 28.9427 642.089 28.7695 641.838C28.5964 641.583 28.3594 641.384 28.0586 641.243C27.7624 641.102 27.4297 641.031 27.0605 641.031C26.6732 641.031 26.3337 641.109 26.042 641.264C25.7549 641.419 25.5316 641.637 25.3721 641.92C25.2126 642.198 25.1328 642.521 25.1328 642.891H23.9707C23.9661 642.316 24.0983 641.808 24.3672 641.366C24.6406 640.924 25.0166 640.58 25.4951 640.334C25.9736 640.088 26.5091 639.965 27.1016 639.965C27.6895 639.965 28.2158 640.086 28.6807 640.327C29.1501 640.569 29.5169 640.899 29.7812 641.318C30.0456 641.738 30.1777 642.202 30.1777 642.713C30.1732 643.091 30.1025 643.453 29.9658 643.8C29.8337 644.142 29.6058 644.522 29.2822 644.941C28.9587 645.361 28.5007 645.876 27.9082 646.486L25.6387 648.824V648.906H30.3555V650H23.9297L23.916 649.098ZM35.6465 650H34.4023V641.387H34.3477L31.9414 642.986V641.742L34.4023 640.102H35.6465V650Z" fill="black"/>
<path d="M22.916 679.098L26.293 675.543C26.735 675.069 27.0723 674.686 27.3047 674.395C27.5417 674.103 27.7217 673.825 27.8447 673.561C27.9678 673.292 28.0293 673.009 28.0293 672.713C28.0293 672.38 27.9427 672.089 27.7695 671.838C27.5964 671.583 27.3594 671.384 27.0586 671.243C26.7624 671.102 26.4297 671.031 26.0605 671.031C25.6732 671.031 25.3337 671.109 25.042 671.264C24.7549 671.419 24.5316 671.637 24.3721 671.92C24.2126 672.198 24.1328 672.521 24.1328 672.891H22.9707C22.9661 672.316 23.0983 671.808 23.3672 671.366C23.6406 670.924 24.0166 670.58 24.4951 670.334C24.9736 670.088 25.5091 669.965 26.1016 669.965C26.6895 669.965 27.2158 670.086 27.6807 670.327C28.1501 670.569 28.5169 670.899 28.7812 671.318C29.0456 671.738 29.1777 672.202 29.1777 672.713C29.1732 673.091 29.1025 673.453 28.9658 673.8C28.8337 674.142 28.6058 674.522 28.2822 674.941C27.9587 675.361 27.5007 675.876 26.9082 676.486L24.6387 678.824V678.906H29.3555V680H22.9297L22.916 679.098ZM31.1328 679.098L34.5098 675.543C34.9518 675.069 35.2891 674.686 35.5215 674.395C35.7585 674.103 35.9385 673.825 36.0615 673.561C36.1846 673.292 36.2461 673.009 36.2461 672.713C36.2461 672.38 36.1595 672.089 35.9863 671.838C35.8132 671.583 35.5762 671.384 35.2754 671.243C34.9792 671.102 34.6465 671.031 34.2773 671.031C33.89 671.031 33.5505 671.109 33.2588 671.264C32.9717 671.419 32.7484 671.637 32.5889 671.92C32.4294 672.198 32.3496 672.521 32.3496 672.891H31.1875C31.1829 672.316 31.3151 671.808 31.584 671.366C31.8574 670.924 32.2334 670.58 32.7119 670.334C33.1904 670.088 33.7259 669.965 34.3184 669.965C34.9062 669.965 35.4326 670.086 35.8975 670.327C36.3669 670.569 36.7337 670.899 36.998 671.318C37.2624 671.738 37.3945 672.202 37.3945 672.713C37.39 673.091 37.3193 673.453 37.1826 673.8C37.0505 674.142 36.8226 674.522 36.499 674.941C36.1755 675.361 35.7174 675.876 35.125 676.486L32.8555 678.824V678.906H37.5723V680H31.1465L31.1328 679.098Z" fill="black"/>
<path d="M22.916 709.098L26.293 705.543C26.735 705.069 27.0723 704.686 27.3047 704.395C27.5417 704.103 27.7217 703.825 27.8447 703.561C27.9678 703.292 28.0293 703.009 28.0293 702.713C28.0293 702.38 27.9427 702.089 27.7695 701.838C27.5964 701.583 27.3594 701.384 27.0586 701.243C26.7624 701.102 26.4297 701.031 26.0605 701.031C25.6732 701.031 25.3337 701.109 25.042 701.264C24.7549 701.419 24.5316 701.637 24.3721 701.92C24.2126 702.198 24.1328 702.521 24.1328 702.891H22.9707C22.9661 702.316 23.0983 701.808 23.3672 701.366C23.6406 700.924 24.0166 700.58 24.4951 700.334C24.9736 700.088 25.5091 699.965 26.1016 699.965C26.6895 699.965 27.2158 700.086 27.6807 700.327C28.1501 700.569 28.5169 700.899 28.7812 701.318C29.0456 701.738 29.1777 702.202 29.1777 702.713C29.1732 703.091 29.1025 703.453 28.9658 703.8C28.8337 704.142 28.6058 704.522 28.2822 704.941C27.9587 705.361 27.5007 705.876 26.9082 706.486L24.6387 708.824V708.906H29.3555V710H22.9297L22.916 709.098ZM34.5645 710.137C33.9128 710.137 33.3294 710.027 32.8145 709.809C32.304 709.59 31.8984 709.282 31.5977 708.886C31.2969 708.485 31.1374 708.027 31.1191 707.512H32.3633C32.3861 707.822 32.4954 708.09 32.6914 708.318C32.8919 708.546 33.1517 708.724 33.4707 708.852C33.7943 708.979 34.1543 709.043 34.5508 709.043C34.9837 709.043 35.3711 708.97 35.7129 708.824C36.0592 708.678 36.3281 708.473 36.5195 708.209C36.7109 707.945 36.8066 707.644 36.8066 707.307C36.8021 706.947 36.7064 706.628 36.5195 706.35C36.3372 706.067 36.0638 705.848 35.6992 705.693C35.3346 705.538 34.9017 705.461 34.4004 705.461H33.5938V704.381H34.4004C34.7969 704.381 35.1501 704.31 35.46 704.169C35.7744 704.028 36.016 703.829 36.1846 703.574C36.3532 703.314 36.4375 703.018 36.4375 702.686C36.4375 702.357 36.3623 702.068 36.2119 701.817C36.0615 701.567 35.8473 701.373 35.5693 701.236C35.2913 701.1 34.9655 701.031 34.5918 701.031C34.2363 701.036 33.9036 701.102 33.5938 701.229C33.2839 701.353 33.0309 701.533 32.835 701.77C32.639 702.002 32.5319 702.275 32.5137 702.59H31.3242C31.3424 702.079 31.502 701.624 31.8027 701.223C32.1035 700.822 32.5 700.512 32.9922 700.293C33.4844 700.074 34.0221 699.965 34.6055 699.965C35.2161 699.965 35.7516 700.086 36.2119 700.327C36.6722 700.569 37.0231 700.892 37.2646 701.298C37.5107 701.703 37.6315 702.143 37.627 702.617C37.6315 702.986 37.5654 703.324 37.4287 703.629C37.2965 703.93 37.1029 704.185 36.8477 704.395C36.5924 704.604 36.2917 704.759 35.9453 704.859V704.928C36.3691 704.992 36.736 705.131 37.0459 705.345C37.3604 705.559 37.5996 705.835 37.7637 706.172C37.9277 706.509 38.0098 706.887 38.0098 707.307C38.0098 707.84 37.8617 708.323 37.5654 708.756C37.2692 709.184 36.8568 709.521 36.3281 709.768C35.804 710.014 35.2161 710.137 34.5645 710.137Z" fill="black"/>
<path d="M22.916 739.098L26.293 735.543C26.735 735.069 27.0723 734.686 27.3047 734.395C27.5417 734.103 27.7217 733.825 27.8447 733.561C27.9678 733.292 28.0293 733.009 28.0293 732.713C28.0293 732.38 27.9427 732.089 27.7695 731.838C27.5964 731.583 27.3594 731.384 27.0586 731.243C26.7624 731.102 26.4297 731.031 26.0605 731.031C25.6732 731.031 25.3337 731.109 25.042 731.264C24.7549 731.419 24.5316 731.637 24.3721 731.92C24.2126 732.198 24.1328 732.521 24.1328 732.891H22.9707C22.9661 732.316 23.0983 731.808 23.3672 731.366C23.6406 730.924 24.0166 730.58 24.4951 730.334C24.9736 730.088 25.5091 729.965 26.1016 729.965C26.6895 729.965 27.2158 730.086 27.6807 730.327C28.1501 730.569 28.5169 730.899 28.7812 731.318C29.0456 731.738 29.1777 732.202 29.1777 732.713C29.1732 733.091 29.1025 733.453 28.9658 733.8C28.8337 734.142 28.6058 734.522 28.2822 734.941C27.9587 735.361 27.5007 735.876 26.9082 736.486L24.6387 738.824V738.906H29.3555V740H22.9297L22.916 739.098ZM30.6816 736.965L35.1387 730.102H35.877V731.66H35.3574L32.0078 736.814V736.896H38.0371V737.977H30.6816V736.965ZM35.4805 737.676V737.197V730.102H36.6562V740H35.4805V737.676Z" fill="black"/>
<path d="M22.916 768.098L26.293 764.543C26.735 764.069 27.0723 763.686 27.3047 763.395C27.5417 763.103 27.7217 762.825 27.8447 762.561C27.9678 762.292 28.0293 762.009 28.0293 761.713C28.0293 761.38 27.9427 761.089 27.7695 760.838C27.5964 760.583 27.3594 760.384 27.0586 760.243C26.7624 760.102 26.4297 760.031 26.0605 760.031C25.6732 760.031 25.3337 760.109 25.042 760.264C24.7549 760.419 24.5316 760.637 24.3721 760.92C24.2126 761.198 24.1328 761.521 24.1328 761.891H22.9707C22.9661 761.316 23.0983 760.808 23.3672 760.366C23.6406 759.924 24.0166 759.58 24.4951 759.334C24.9736 759.088 25.5091 758.965 26.1016 758.965C26.6895 758.965 27.2158 759.086 27.6807 759.327C28.1501 759.569 28.5169 759.899 28.7812 760.318C29.0456 760.738 29.1777 761.202 29.1777 761.713C29.1732 762.091 29.1025 762.453 28.9658 762.8C28.8337 763.142 28.6058 763.522 28.2822 763.941C27.9587 764.361 27.5007 764.876 26.9082 765.486L24.6387 767.824V767.906H29.3555V769H22.9297L22.916 768.098ZM34.373 769.137C33.7852 769.137 33.2497 769.023 32.7666 768.795C32.2881 768.567 31.9053 768.255 31.6182 767.858C31.3356 767.462 31.1829 767.013 31.1602 766.512H32.3496C32.377 766.803 32.484 767.065 32.6709 767.298C32.8577 767.53 33.0993 767.715 33.3955 767.852C33.6963 767.988 34.0221 768.057 34.373 768.057C34.7969 768.057 35.1751 767.961 35.5078 767.77C35.8451 767.578 36.1094 767.316 36.3008 766.983C36.4922 766.651 36.5879 766.279 36.5879 765.869C36.5879 765.445 36.4899 765.065 36.2939 764.728C36.098 764.386 35.8245 764.117 35.4736 763.921C35.1227 763.725 34.7285 763.627 34.291 763.627C33.8581 763.618 33.4867 763.686 33.1768 763.832C32.8669 763.973 32.623 764.201 32.4453 764.516H31.2559L31.9531 759.102H37.3125V760.195H32.9785L32.6094 763.094H32.7051C32.9329 762.921 33.2041 762.782 33.5186 762.677C33.8376 762.572 34.168 762.52 34.5098 762.52C35.1296 762.52 35.6901 762.661 36.1914 762.943C36.6927 763.226 37.0846 763.622 37.3672 764.133C37.6497 764.639 37.791 765.208 37.791 765.842C37.791 766.471 37.6429 767.036 37.3467 767.537C37.0505 768.038 36.6426 768.43 36.123 768.713C35.6081 768.995 35.0247 769.137 34.373 769.137Z" fill="black"/>
<line x1="60.5" y1="2.20822e-08" x2="60.5" y2="780" stroke="black" stroke-opacity="0.2"/>
<line x1="955.5" y1="2.20822e-08" x2="955.5" y2="780" stroke="black" stroke-opacity="0.2"/>
<line x1="847.5" y1="2.20822e-08" x2="847.5" y2="780" stroke="black" stroke-opacity="0.2"/>
<line x1="192.5" y1="2.20822e-08" x2="192.5" y2="780" stroke="black" stroke-opacity="0.2"/>
<line x1="607.5" y1="2.20822e-08" x2="607.5" y2="780" stroke="black" stroke-opacity="0.2"/>
<line x1="710.5" y1="2.20822e-08" x2="710.5" y2="780" stroke="black" stroke-opacity="0.2"/>
<line x1="1240.5" y1="2.20822e-08" x2="1240.5" y2="780" stroke="black" stroke-opacity="0.2"/>
<line x1="1087.5" y1="2.20822e-08" x2="1087.5" y2="780" stroke="black" stroke-opacity="0.2"/>
<line x1="1108.5" y1="2.20822e-08" x2="1108.5" y2="780" stroke="black" stroke-opacity="0.2"/>
</g>
<defs>
<clipPath id="clip0_513_2201">
<rect width="1440" height="780" fill="white"/>
</clipPath>
</defs>
</svg>
