<svg width="1440" height="780" viewBox="0 0 1440 780" fill="none" xmlns="http://www.w3.org/2000/svg">
<g clip-path="url(#clip0_508_1759)">
<rect width="1440" height="780" fill="white"/>
<path fill-rule="evenodd" clip-rule="evenodd" d="M60 0H0V780H60V30H1441V0H60Z" fill="#DDDDDD"/>
<path d="M31.4297 50H30.1855V41.3867H30.1309L27.7246 42.9863V41.7422L30.1855 40.1016H31.4297V50Z" fill="black"/>
<path d="M26.916 79.0977L30.293 75.543C30.735 75.069 31.0723 74.6862 31.3047 74.3945C31.5417 74.1029 31.7217 73.8249 31.8447 73.5605C31.9678 73.2917 32.0293 73.0091 32.0293 72.7129C32.0293 72.3802 31.9427 72.0885 31.7695 71.8379C31.5964 71.5827 31.3594 71.3844 31.0586 71.2432C30.7624 71.1019 30.4297 71.0312 30.0605 71.0312C29.6732 71.0312 29.3337 71.1087 29.042 71.2637C28.7549 71.4186 28.5316 71.6374 28.3721 71.9199C28.2126 72.1979 28.1328 72.5215 28.1328 72.8906H26.9707C26.9661 72.3164 27.0983 71.8083 27.3672 71.3662C27.6406 70.9242 28.0166 70.5801 28.4951 70.334C28.9736 70.0879 29.5091 69.9648 30.1016 69.9648C30.6895 69.9648 31.2158 70.0856 31.6807 70.3271C32.1501 70.5687 32.5169 70.8991 32.7812 71.3184C33.0456 71.7376 33.1777 72.2025 33.1777 72.7129C33.1732 73.0911 33.1025 73.4535 32.9658 73.7998C32.8337 74.1416 32.6058 74.5221 32.2822 74.9414C31.9587 75.3607 31.5007 75.8757 30.9082 76.4863L28.6387 78.8242V78.9062H33.3555V80H26.9297L26.916 79.0977Z" fill="black"/>
<path d="M30.3477 110.137C29.696 110.137 29.1126 110.027 28.5977 109.809C28.0872 109.59 27.6816 109.282 27.3809 108.886C27.0801 108.485 26.9206 108.027 26.9023 107.512H28.1465C28.1693 107.822 28.2786 108.09 28.4746 108.318C28.6751 108.546 28.9349 108.724 29.2539 108.852C29.5775 108.979 29.9375 109.043 30.334 109.043C30.7669 109.043 31.1543 108.97 31.4961 108.824C31.8424 108.678 32.1113 108.473 32.3027 108.209C32.4941 107.945 32.5898 107.644 32.5898 107.307C32.5853 106.947 32.4896 106.628 32.3027 106.35C32.1204 106.067 31.847 105.848 31.4824 105.693C31.1178 105.538 30.6849 105.461 30.1836 105.461H29.377V104.381H30.1836C30.5801 104.381 30.9333 104.31 31.2432 104.169C31.5576 104.028 31.7992 103.829 31.9678 103.574C32.1364 103.314 32.2207 103.018 32.2207 102.686C32.2207 102.357 32.1455 102.068 31.9951 101.817C31.8447 101.567 31.6305 101.373 31.3525 101.236C31.0745 101.1 30.7487 101.031 30.375 101.031C30.0195 101.036 29.6868 101.102 29.377 101.229C29.0671 101.353 28.8141 101.533 28.6182 101.77C28.4222 102.002 28.3151 102.275 28.2969 102.59H27.1074C27.1257 102.079 27.2852 101.624 27.5859 101.223C27.8867 100.822 28.2832 100.512 28.7754 100.293C29.2676 100.074 29.8053 99.9648 30.3887 99.9648C30.9993 99.9648 31.5348 100.086 31.9951 100.327C32.4554 100.569 32.8063 100.892 33.0479 101.298C33.2939 101.703 33.4147 102.143 33.4102 102.617C33.4147 102.986 33.3486 103.324 33.2119 103.629C33.0798 103.93 32.8861 104.185 32.6309 104.395C32.3757 104.604 32.0749 104.759 31.7285 104.859V104.928C32.1523 104.992 32.5192 105.131 32.8291 105.345C33.1436 105.559 33.3828 105.835 33.5469 106.172C33.7109 106.509 33.793 106.887 33.793 107.307C33.793 107.84 33.6449 108.323 33.3486 108.756C33.0524 109.184 32.64 109.521 32.1113 109.768C31.5872 110.014 30.9993 110.137 30.3477 110.137Z" fill="black"/>
<path d="M26.6836 136.965L31.1406 130.102H31.8789V131.66H31.3594L28.0098 136.814V136.896H34.0391V137.977H26.6836V136.965ZM31.4824 137.676V137.197V130.102H32.6582V140H31.4824V137.676Z" fill="black"/>
<path d="M30.1562 170.137C29.5684 170.137 29.0329 170.023 28.5498 169.795C28.0713 169.567 27.6885 169.255 27.4014 168.858C27.1188 168.462 26.9661 168.013 26.9434 167.512H28.1328C28.1602 167.803 28.2673 168.065 28.4541 168.298C28.641 168.53 28.8825 168.715 29.1787 168.852C29.4795 168.988 29.8053 169.057 30.1562 169.057C30.5801 169.057 30.9583 168.961 31.291 168.77C31.6283 168.578 31.8926 168.316 32.084 167.983C32.2754 167.651 32.3711 167.279 32.3711 166.869C32.3711 166.445 32.2731 166.065 32.0771 165.728C31.8812 165.386 31.6077 165.117 31.2568 164.921C30.9059 164.725 30.5117 164.627 30.0742 164.627C29.6413 164.618 29.2699 164.686 28.96 164.832C28.6501 164.973 28.4062 165.201 28.2285 165.516H27.0391L27.7363 160.102H33.0957V161.195H28.7617L28.3926 164.094H28.4883C28.7161 163.921 28.9873 163.782 29.3018 163.677C29.6208 163.572 29.9512 163.52 30.293 163.52C30.9128 163.52 31.4733 163.661 31.9746 163.943C32.4759 164.226 32.8678 164.622 33.1504 165.133C33.4329 165.639 33.5742 166.208 33.5742 166.842C33.5742 167.471 33.4261 168.036 33.1299 168.537C32.8337 169.038 32.4258 169.43 31.9062 169.713C31.3913 169.995 30.8079 170.137 30.1562 170.137Z" fill="black"/>
<path d="M30.375 200.137C29.737 200.128 29.1491 199.977 28.6113 199.686C28.0736 199.394 27.6315 198.899 27.2852 198.202C26.9388 197.505 26.7656 196.582 26.7656 195.434C26.7656 194.276 26.9183 193.287 27.2236 192.467C27.529 191.646 27.9619 191.024 28.5225 190.601C29.083 190.177 29.7507 189.965 30.5254 189.965C31.0951 189.965 31.6077 190.074 32.0635 190.293C32.5238 190.512 32.8975 190.822 33.1846 191.223C33.4717 191.619 33.6562 192.075 33.7383 192.59H32.5215C32.444 192.289 32.3164 192.022 32.1387 191.79C31.9655 191.558 31.7422 191.378 31.4688 191.25C31.1953 191.122 30.8809 191.059 30.5254 191.059C29.9831 191.059 29.516 191.207 29.124 191.503C28.7367 191.799 28.4404 192.232 28.2354 192.802C28.0303 193.367 27.9277 194.044 27.9277 194.832H28.0508C28.2422 194.554 28.4678 194.317 28.7275 194.121C28.9873 193.921 29.2744 193.77 29.5889 193.67C29.9079 193.57 30.2428 193.52 30.5938 193.52C31.1771 193.52 31.7148 193.661 32.207 193.943C32.6992 194.226 33.0911 194.618 33.3828 195.119C33.6745 195.616 33.8203 196.176 33.8203 196.801C33.8203 197.425 33.6768 197.993 33.3896 198.503C33.1025 199.009 32.6969 199.41 32.1729 199.706C31.6533 199.998 31.054 200.141 30.375 200.137ZM30.375 199.057C30.7943 199.057 31.1748 198.954 31.5166 198.749C31.8584 198.544 32.1296 198.273 32.3301 197.936C32.5306 197.594 32.6309 197.22 32.6309 196.814C32.6309 196.413 32.5352 196.044 32.3438 195.707C32.1523 195.37 31.8857 195.101 31.5439 194.9C31.2021 194.7 30.8216 194.6 30.4023 194.6C29.9785 194.6 29.5911 194.702 29.2402 194.907C28.8939 195.112 28.6159 195.388 28.4062 195.734C28.2012 196.076 28.0964 196.441 28.0918 196.828C28.0918 197.215 28.1921 197.58 28.3926 197.922C28.5931 198.259 28.8665 198.533 29.2129 198.742C29.5592 198.952 29.9466 199.057 30.375 199.057Z" fill="black"/>
<path d="M31.7832 221.264V221.195H26.5469V220.102H33.0547V221.25L28.5293 230H27.2441L31.7832 221.264Z" fill="black"/>
<path d="M30.2383 260.137C29.5547 260.137 28.9463 260.018 28.4131 259.781C27.8799 259.544 27.4652 259.216 27.1689 258.797C26.8727 258.378 26.7246 257.904 26.7246 257.375C26.7246 256.956 26.8135 256.564 26.9912 256.199C27.1689 255.835 27.4105 255.536 27.7158 255.304C28.0212 255.067 28.3607 254.919 28.7344 254.859V254.805C28.4108 254.732 28.126 254.588 27.8799 254.374C27.6383 254.16 27.4492 253.898 27.3125 253.588C27.1758 253.278 27.1074 252.945 27.1074 252.59C27.1074 252.093 27.2419 251.646 27.5107 251.25C27.7796 250.849 28.151 250.535 28.625 250.307C29.1035 250.079 29.6413 249.965 30.2383 249.965C30.8307 249.965 31.3662 250.079 31.8447 250.307C32.3232 250.535 32.6969 250.849 32.9658 251.25C33.2393 251.646 33.3783 252.093 33.3828 252.59C33.3783 252.945 33.3053 253.278 33.1641 253.588C33.0273 253.898 32.8359 254.16 32.5898 254.374C32.3438 254.588 32.0612 254.732 31.7422 254.805V254.859C32.1113 254.919 32.4486 255.067 32.7539 255.304C33.0638 255.536 33.3076 255.835 33.4854 256.199C33.6676 256.564 33.7611 256.956 33.7656 257.375C33.7611 257.904 33.6084 258.378 33.3076 258.797C33.0114 259.216 32.5944 259.544 32.0566 259.781C31.5234 260.018 30.9173 260.137 30.2383 260.137ZM30.2383 259.057C30.7031 259.057 31.1087 258.981 31.4551 258.831C31.8014 258.681 32.068 258.476 32.2549 258.216C32.4417 257.956 32.5352 257.653 32.5352 257.307C32.5352 256.947 32.4372 256.623 32.2412 256.336C32.0452 256.044 31.7718 255.816 31.4209 255.652C31.07 255.488 30.6758 255.406 30.2383 255.406C29.8008 255.406 29.4089 255.488 29.0625 255.652C28.7161 255.816 28.4427 256.044 28.2422 256.336C28.0462 256.623 27.9505 256.947 27.9551 257.307C27.9505 257.653 28.0394 257.956 28.2217 258.216C28.4085 258.476 28.6729 258.681 29.0146 258.831C29.361 258.981 29.7689 259.057 30.2383 259.057ZM30.2383 254.367C30.612 254.367 30.9469 254.294 31.2432 254.148C31.5394 254.003 31.7695 253.804 31.9336 253.554C32.0977 253.303 32.1797 253.014 32.1797 252.686C32.1797 252.357 32.0999 252.068 31.9404 251.817C31.7809 251.567 31.5531 251.373 31.2568 251.236C30.9606 251.1 30.6211 251.031 30.2383 251.031C29.8509 251.031 29.5114 251.1 29.2197 251.236C28.9326 251.373 28.707 251.567 28.543 251.817C28.3789 252.068 28.2969 252.357 28.2969 252.686C28.2969 253.014 28.3812 253.303 28.5498 253.554C28.7184 253.804 28.9486 254.003 29.2402 254.148C29.5319 254.294 29.8646 254.367 30.2383 254.367Z" fill="black"/>
<path d="M30.2246 279.965C30.8535 279.974 31.4391 280.124 31.9814 280.416C32.5238 280.708 32.9658 281.202 33.3076 281.899C33.6494 282.592 33.8203 283.51 33.8203 284.654C33.8203 285.812 33.6699 286.801 33.3691 287.621C33.0684 288.441 32.6354 289.066 32.0703 289.494C31.5052 289.923 30.8353 290.137 30.0605 290.137C29.4863 290.137 28.9714 290.025 28.5156 289.802C28.0599 289.578 27.6885 289.271 27.4014 288.879C27.1143 288.482 26.9297 288.022 26.8477 287.498H28.0645C28.1374 287.803 28.2627 288.072 28.4404 288.305C28.6182 288.533 28.8438 288.713 29.1172 288.845C29.3906 288.977 29.7051 289.043 30.0605 289.043C30.5983 289.043 31.0632 288.893 31.4551 288.592C31.847 288.291 32.1455 287.858 32.3506 287.293C32.5602 286.723 32.6673 286.04 32.6719 285.242H32.5352C32.3438 285.516 32.1182 285.75 31.8584 285.946C31.5986 286.142 31.3115 286.293 30.9971 286.397C30.6826 286.502 30.3522 286.555 30.0059 286.555C29.418 286.555 28.8757 286.413 28.3789 286.131C27.8867 285.848 27.4948 285.459 27.2031 284.962C26.9115 284.465 26.7656 283.907 26.7656 283.287C26.7656 282.672 26.9092 282.111 27.1963 281.605C27.4834 281.095 27.889 280.694 28.4131 280.402C28.9372 280.106 29.541 279.96 30.2246 279.965ZM30.2246 281.045C29.8008 281.045 29.4157 281.145 29.0693 281.346C28.7275 281.546 28.4564 281.817 28.2559 282.159C28.0599 282.501 27.9642 282.872 27.9688 283.273C27.9688 283.679 28.0645 284.05 28.2559 284.388C28.4473 284.72 28.7093 284.985 29.042 285.181C29.3792 285.377 29.7598 285.475 30.1836 285.475C30.6029 285.475 30.988 285.37 31.3389 285.16C31.6898 284.951 31.9678 284.675 32.1729 284.333C32.3779 283.991 32.4805 283.629 32.4805 283.246C32.4805 282.868 32.3825 282.51 32.1865 282.173C31.9906 281.831 31.7194 281.558 31.373 281.353C31.0312 281.147 30.6484 281.045 30.2246 281.045Z" fill="black"/>
<path d="M27.4297 320H26.1855V311.387H26.1309L23.7246 312.986V311.742L26.1855 310.102H27.4297V320ZM33.3086 320.137C32.5794 320.137 31.9574 319.938 31.4424 319.542C30.9274 319.146 30.5332 318.567 30.2598 317.806C29.9863 317.045 29.8496 316.126 29.8496 315.051C29.8496 313.989 29.9863 313.077 30.2598 312.316C30.5332 311.551 30.9274 310.967 31.4424 310.566C31.9619 310.165 32.584 309.965 33.3086 309.965C34.0286 309.965 34.6484 310.165 35.168 310.566C35.6875 310.967 36.084 311.551 36.3574 312.316C36.6309 313.077 36.7676 313.989 36.7676 315.051C36.7676 316.126 36.6331 317.045 36.3643 317.806C36.0954 318.567 35.7012 319.146 35.1816 319.542C34.6621 319.938 34.0378 320.137 33.3086 320.137ZM33.3086 319.043C33.7826 319.043 34.1904 318.888 34.5322 318.578C34.874 318.268 35.1315 317.815 35.3047 317.218C35.4779 316.621 35.5645 315.898 35.5645 315.051C35.5645 314.203 35.4756 313.479 35.2979 312.877C35.1201 312.275 34.8626 311.817 34.5254 311.503C34.1882 311.188 33.7826 311.031 33.3086 311.031C32.8346 311.031 32.429 311.188 32.0918 311.503C31.7546 311.817 31.4948 312.275 31.3125 312.877C31.1302 313.479 31.0391 314.203 31.0391 315.051C31.0391 315.898 31.1302 316.621 31.3125 317.218C31.4948 317.815 31.7523 318.268 32.085 318.578C32.4222 318.888 32.8301 319.043 33.3086 319.043Z" fill="black"/>
<path d="M28.4297 350H27.1855V341.387H27.1309L24.7246 342.986V341.742L27.1855 340.102H28.4297V350ZM34.5684 350H33.3242V341.387H33.2695L30.8633 342.986V341.742L33.3242 340.102H34.5684V350Z" fill="black"/>
<path d="M27.4297 380H26.1855V371.387H26.1309L23.7246 372.986V371.742L26.1855 370.102H27.4297V380ZM30.0547 379.098L33.4316 375.543C33.8737 375.069 34.2109 374.686 34.4434 374.395C34.6803 374.103 34.8604 373.825 34.9834 373.561C35.1064 373.292 35.168 373.009 35.168 372.713C35.168 372.38 35.0814 372.089 34.9082 371.838C34.735 371.583 34.498 371.384 34.1973 371.243C33.901 371.102 33.5684 371.031 33.1992 371.031C32.8118 371.031 32.4723 371.109 32.1807 371.264C31.8936 371.419 31.6702 371.637 31.5107 371.92C31.3512 372.198 31.2715 372.521 31.2715 372.891H30.1094C30.1048 372.316 30.237 371.808 30.5059 371.366C30.7793 370.924 31.1553 370.58 31.6338 370.334C32.1123 370.088 32.6478 369.965 33.2402 369.965C33.8281 369.965 34.3545 370.086 34.8193 370.327C35.2887 370.569 35.6556 370.899 35.9199 371.318C36.1842 371.738 36.3164 372.202 36.3164 372.713C36.3118 373.091 36.2412 373.453 36.1045 373.8C35.9723 374.142 35.7445 374.522 35.4209 374.941C35.0973 375.361 34.6393 375.876 34.0469 376.486L31.7773 378.824V378.906H36.4941V380H30.0684L30.0547 379.098Z" fill="black"/>
<path d="M27.4297 410H26.1855V401.387H26.1309L23.7246 402.986V401.742L26.1855 400.102H27.4297V410ZM33.4863 410.137C32.8346 410.137 32.2513 410.027 31.7363 409.809C31.2259 409.59 30.8203 409.282 30.5195 408.886C30.2188 408.485 30.0592 408.027 30.041 407.512H31.2852C31.3079 407.822 31.4173 408.09 31.6133 408.318C31.8138 408.546 32.0736 408.724 32.3926 408.852C32.7161 408.979 33.0762 409.043 33.4727 409.043C33.9056 409.043 34.293 408.97 34.6348 408.824C34.9811 408.678 35.25 408.473 35.4414 408.209C35.6328 407.945 35.7285 407.644 35.7285 407.307C35.724 406.947 35.6283 406.628 35.4414 406.35C35.2591 406.067 34.9857 405.848 34.6211 405.693C34.2565 405.538 33.8236 405.461 33.3223 405.461H32.5156V404.381H33.3223C33.7188 404.381 34.0719 404.31 34.3818 404.169C34.6963 404.028 34.9378 403.829 35.1064 403.574C35.2751 403.314 35.3594 403.018 35.3594 402.686C35.3594 402.357 35.2842 402.068 35.1338 401.817C34.9834 401.567 34.7692 401.373 34.4912 401.236C34.2132 401.1 33.8874 401.031 33.5137 401.031C33.1582 401.036 32.8255 401.102 32.5156 401.229C32.2057 401.353 31.9528 401.533 31.7568 401.77C31.5609 402.002 31.4538 402.275 31.4355 402.59H30.2461C30.2643 402.079 30.4238 401.624 30.7246 401.223C31.0254 400.822 31.4219 400.512 31.9141 400.293C32.4062 400.074 32.944 399.965 33.5273 399.965C34.138 399.965 34.6735 400.086 35.1338 400.327C35.5941 400.569 35.945 400.892 36.1865 401.298C36.4326 401.703 36.5534 402.143 36.5488 402.617C36.5534 402.986 36.4873 403.324 36.3506 403.629C36.2184 403.93 36.0247 404.185 35.7695 404.395C35.5143 404.604 35.2135 404.759 34.8672 404.859V404.928C35.291 404.992 35.6579 405.131 35.9678 405.345C36.2822 405.559 36.5215 405.835 36.6855 406.172C36.8496 406.509 36.9316 406.887 36.9316 407.307C36.9316 407.84 36.7835 408.323 36.4873 408.756C36.1911 409.184 35.7786 409.521 35.25 409.768C34.7259 410.014 34.138 410.137 33.4863 410.137Z" fill="black"/>
<path d="M27.4297 440H26.1855V431.387H26.1309L23.7246 432.986V431.742L26.1855 430.102H27.4297V440ZM29.8223 436.965L34.2793 430.102H35.0176V431.66H34.498L31.1484 436.814V436.896H37.1777V437.977H29.8223V436.965ZM34.6211 437.676V437.197V430.102H35.7969V440H34.6211V437.676Z" fill="black"/>
<path d="M27.4297 470H26.1855V461.387H26.1309L23.7246 462.986V461.742L26.1855 460.102H27.4297V470ZM33.2949 470.137C32.707 470.137 32.1715 470.023 31.6885 469.795C31.21 469.567 30.8271 469.255 30.54 468.858C30.2575 468.462 30.1048 468.013 30.082 467.512H31.2715C31.2988 467.803 31.4059 468.065 31.5928 468.298C31.7796 468.53 32.0212 468.715 32.3174 468.852C32.6182 468.988 32.944 469.057 33.2949 469.057C33.7188 469.057 34.097 468.961 34.4297 468.77C34.7669 468.578 35.0312 468.316 35.2227 467.983C35.4141 467.651 35.5098 467.279 35.5098 466.869C35.5098 466.445 35.4118 466.065 35.2158 465.728C35.0199 465.386 34.7464 465.117 34.3955 464.921C34.0446 464.725 33.6504 464.627 33.2129 464.627C32.7799 464.618 32.4085 464.686 32.0986 464.832C31.7887 464.973 31.5449 465.201 31.3672 465.516H30.1777L30.875 460.102H36.2344V461.195H31.9004L31.5312 464.094H31.627C31.8548 463.921 32.126 463.782 32.4404 463.677C32.7594 463.572 33.0898 463.52 33.4316 463.52C34.0514 463.52 34.612 463.661 35.1133 463.943C35.6146 464.226 36.0065 464.622 36.2891 465.133C36.5716 465.639 36.7129 466.208 36.7129 466.842C36.7129 467.471 36.5648 468.036 36.2686 468.537C35.9723 469.038 35.5645 469.43 35.0449 469.713C34.5299 469.995 33.9466 470.137 33.2949 470.137Z" fill="black"/>
<path d="M27.4297 500H26.1855V491.387H26.1309L23.7246 492.986V491.742L26.1855 490.102H27.4297V500ZM33.5137 500.137C32.8757 500.128 32.2878 499.977 31.75 499.686C31.2122 499.394 30.7702 498.899 30.4238 498.202C30.0775 497.505 29.9043 496.582 29.9043 495.434C29.9043 494.276 30.057 493.287 30.3623 492.467C30.6676 491.646 31.1006 491.024 31.6611 490.601C32.2217 490.177 32.8893 489.965 33.6641 489.965C34.2337 489.965 34.7464 490.074 35.2021 490.293C35.6624 490.512 36.0361 490.822 36.3232 491.223C36.6104 491.619 36.7949 492.075 36.877 492.59H35.6602C35.5827 492.289 35.4551 492.022 35.2773 491.79C35.1042 491.558 34.8809 491.378 34.6074 491.25C34.334 491.122 34.0195 491.059 33.6641 491.059C33.1217 491.059 32.6546 491.207 32.2627 491.503C31.8753 491.799 31.5791 492.232 31.374 492.802C31.1689 493.367 31.0664 494.044 31.0664 494.832H31.1895C31.3809 494.554 31.6064 494.317 31.8662 494.121C32.126 493.921 32.4131 493.77 32.7275 493.67C33.0465 493.57 33.3815 493.52 33.7324 493.52C34.3158 493.52 34.8535 493.661 35.3457 493.943C35.8379 494.226 36.2298 494.618 36.5215 495.119C36.8132 495.616 36.959 496.176 36.959 496.801C36.959 497.425 36.8154 497.993 36.5283 498.503C36.2412 499.009 35.8356 499.41 35.3115 499.706C34.792 499.998 34.1927 500.141 33.5137 500.137ZM33.5137 499.057C33.9329 499.057 34.3135 498.954 34.6553 498.749C34.9971 498.544 35.2682 498.273 35.4688 497.936C35.6693 497.594 35.7695 497.22 35.7695 496.814C35.7695 496.413 35.6738 496.044 35.4824 495.707C35.291 495.37 35.0244 495.101 34.6826 494.9C34.3408 494.7 33.9603 494.6 33.541 494.6C33.1172 494.6 32.7298 494.702 32.3789 494.907C32.0326 495.112 31.7546 495.388 31.5449 495.734C31.3398 496.076 31.235 496.441 31.2305 496.828C31.2305 497.215 31.3307 497.58 31.5312 497.922C31.7318 498.259 32.0052 498.533 32.3516 498.742C32.6979 498.952 33.0853 499.057 33.5137 499.057Z" fill="black"/>
<path d="M27.4297 530H26.1855V521.387H26.1309L23.7246 522.986V521.742L26.1855 520.102H27.4297V530ZM34.9219 521.264V521.195H29.6855V520.102H36.1934V521.25L31.668 530H30.3828L34.9219 521.264Z" fill="black"/>
<path d="M27.4297 560H26.1855V551.387H26.1309L23.7246 552.986V551.742L26.1855 550.102H27.4297V560ZM33.377 560.137C32.6934 560.137 32.085 560.018 31.5518 559.781C31.0186 559.544 30.6038 559.216 30.3076 558.797C30.0114 558.378 29.8633 557.904 29.8633 557.375C29.8633 556.956 29.9521 556.564 30.1299 556.199C30.3076 555.835 30.5492 555.536 30.8545 555.304C31.1598 555.067 31.4993 554.919 31.873 554.859V554.805C31.5495 554.732 31.2646 554.588 31.0186 554.374C30.777 554.16 30.5879 553.898 30.4512 553.588C30.3145 553.278 30.2461 552.945 30.2461 552.59C30.2461 552.093 30.3805 551.646 30.6494 551.25C30.9183 550.849 31.2897 550.535 31.7637 550.307C32.2422 550.079 32.7799 549.965 33.377 549.965C33.9694 549.965 34.5049 550.079 34.9834 550.307C35.4619 550.535 35.8356 550.849 36.1045 551.25C36.3779 551.646 36.5169 552.093 36.5215 552.59C36.5169 552.945 36.444 553.278 36.3027 553.588C36.166 553.898 35.9746 554.16 35.7285 554.374C35.4824 554.588 35.1999 554.732 34.8809 554.805V554.859C35.25 554.919 35.5872 555.067 35.8926 555.304C36.2025 555.536 36.4463 555.835 36.624 556.199C36.8063 556.564 36.8997 556.956 36.9043 557.375C36.8997 557.904 36.7471 558.378 36.4463 558.797C36.1501 559.216 35.7331 559.544 35.1953 559.781C34.6621 560.018 34.056 560.137 33.377 560.137ZM33.377 559.057C33.8418 559.057 34.2474 558.981 34.5938 558.831C34.9401 558.681 35.2067 558.476 35.3936 558.216C35.5804 557.956 35.6738 557.653 35.6738 557.307C35.6738 556.947 35.5758 556.623 35.3799 556.336C35.1839 556.044 34.9105 555.816 34.5596 555.652C34.2087 555.488 33.8145 555.406 33.377 555.406C32.9395 555.406 32.5475 555.488 32.2012 555.652C31.8548 555.816 31.5814 556.044 31.3809 556.336C31.1849 556.623 31.0892 556.947 31.0938 557.307C31.0892 557.653 31.1781 557.956 31.3604 558.216C31.5472 558.476 31.8115 558.681 32.1533 558.831C32.4997 558.981 32.9076 559.057 33.377 559.057ZM33.377 554.367C33.7507 554.367 34.0856 554.294 34.3818 554.148C34.6781 554.003 34.9082 553.804 35.0723 553.554C35.2363 553.303 35.3184 553.014 35.3184 552.686C35.3184 552.357 35.2386 552.068 35.0791 551.817C34.9196 551.567 34.6917 551.373 34.3955 551.236C34.0993 551.1 33.7598 551.031 33.377 551.031C32.9896 551.031 32.6501 551.1 32.3584 551.236C32.0713 551.373 31.8457 551.567 31.6816 551.817C31.5176 552.068 31.4355 552.357 31.4355 552.686C31.4355 553.014 31.5199 553.303 31.6885 553.554C31.8571 553.804 32.0872 554.003 32.3789 554.148C32.6706 554.294 33.0033 554.367 33.377 554.367Z" fill="black"/>
<path d="M27.4297 590H26.1855V581.387H26.1309L23.7246 582.986V581.742L26.1855 580.102H27.4297V590ZM33.3633 579.965C33.9922 579.974 34.5778 580.124 35.1201 580.416C35.6624 580.708 36.1045 581.202 36.4463 581.899C36.7881 582.592 36.959 583.51 36.959 584.654C36.959 585.812 36.8086 586.801 36.5078 587.621C36.207 588.441 35.7741 589.066 35.209 589.494C34.6439 589.923 33.974 590.137 33.1992 590.137C32.625 590.137 32.11 590.025 31.6543 589.802C31.1986 589.578 30.8271 589.271 30.54 588.879C30.2529 588.482 30.0684 588.022 29.9863 587.498H31.2031C31.276 587.803 31.4014 588.072 31.5791 588.305C31.7568 588.533 31.9824 588.713 32.2559 588.845C32.5293 588.977 32.8438 589.043 33.1992 589.043C33.737 589.043 34.2018 588.893 34.5938 588.592C34.9857 588.291 35.2842 587.858 35.4893 587.293C35.6989 586.723 35.806 586.04 35.8105 585.242H35.6738C35.4824 585.516 35.2568 585.75 34.9971 585.946C34.7373 586.142 34.4502 586.293 34.1357 586.397C33.8213 586.502 33.4909 586.555 33.1445 586.555C32.5566 586.555 32.0143 586.413 31.5176 586.131C31.0254 585.848 30.6335 585.459 30.3418 584.962C30.0501 584.465 29.9043 583.907 29.9043 583.287C29.9043 582.672 30.0479 582.111 30.335 581.605C30.6221 581.095 31.0277 580.694 31.5518 580.402C32.0758 580.106 32.6797 579.96 33.3633 579.965ZM33.3633 581.045C32.9395 581.045 32.5544 581.145 32.208 581.346C31.8662 581.546 31.5951 581.817 31.3945 582.159C31.1986 582.501 31.1029 582.872 31.1074 583.273C31.1074 583.679 31.2031 584.05 31.3945 584.388C31.5859 584.72 31.848 584.985 32.1807 585.181C32.5179 585.377 32.8984 585.475 33.3223 585.475C33.7415 585.475 34.1266 585.37 34.4775 585.16C34.8285 584.951 35.1064 584.675 35.3115 584.333C35.5166 583.991 35.6191 583.629 35.6191 583.246C35.6191 582.868 35.5212 582.51 35.3252 582.173C35.1292 581.831 34.8581 581.558 34.5117 581.353C34.1699 581.147 33.7871 581.045 33.3633 581.045Z" fill="black"/>
<path d="M22.916 619.098L26.293 615.543C26.735 615.069 27.0723 614.686 27.3047 614.395C27.5417 614.103 27.7217 613.825 27.8447 613.561C27.9678 613.292 28.0293 613.009 28.0293 612.713C28.0293 612.38 27.9427 612.089 27.7695 611.838C27.5964 611.583 27.3594 611.384 27.0586 611.243C26.7624 611.102 26.4297 611.031 26.0605 611.031C25.6732 611.031 25.3337 611.109 25.042 611.264C24.7549 611.419 24.5316 611.637 24.3721 611.92C24.2126 612.198 24.1328 612.521 24.1328 612.891H22.9707C22.9661 612.316 23.0983 611.808 23.3672 611.366C23.6406 610.924 24.0166 610.58 24.4951 610.334C24.9736 610.088 25.5091 609.965 26.1016 609.965C26.6895 609.965 27.2158 610.086 27.6807 610.327C28.1501 610.569 28.5169 610.899 28.7812 611.318C29.0456 611.738 29.1777 612.202 29.1777 612.713C29.1732 613.091 29.1025 613.453 28.9658 613.8C28.8337 614.142 28.6058 614.522 28.2822 614.941C27.9587 615.361 27.5007 615.876 26.9082 616.486L24.6387 618.824V618.906H29.3555V620H22.9297L22.916 619.098ZM34.3867 620.137C33.6576 620.137 33.0355 619.938 32.5205 619.542C32.0055 619.146 31.6113 618.567 31.3379 617.806C31.0645 617.045 30.9277 616.126 30.9277 615.051C30.9277 613.989 31.0645 613.077 31.3379 612.316C31.6113 611.551 32.0055 610.967 32.5205 610.566C33.04 610.165 33.6621 609.965 34.3867 609.965C35.1068 609.965 35.7266 610.165 36.2461 610.566C36.7656 610.967 37.1621 611.551 37.4355 612.316C37.709 613.077 37.8457 613.989 37.8457 615.051C37.8457 616.126 37.7113 617.045 37.4424 617.806C37.1735 618.567 36.7793 619.146 36.2598 619.542C35.7402 619.938 35.1159 620.137 34.3867 620.137ZM34.3867 619.043C34.8607 619.043 35.2686 618.888 35.6104 618.578C35.9521 618.268 36.2096 617.815 36.3828 617.218C36.556 616.621 36.6426 615.898 36.6426 615.051C36.6426 614.203 36.5537 613.479 36.376 612.877C36.1982 612.275 35.9408 611.817 35.6035 611.503C35.2663 611.188 34.8607 611.031 34.3867 611.031C33.9128 611.031 33.5072 611.188 33.1699 611.503C32.8327 611.817 32.5729 612.275 32.3906 612.877C32.2083 613.479 32.1172 614.203 32.1172 615.051C32.1172 615.898 32.2083 616.621 32.3906 617.218C32.5729 617.815 32.8304 618.268 33.1631 618.578C33.5003 618.888 33.9082 619.043 34.3867 619.043Z" fill="black"/>
<path d="M23.916 649.098L27.293 645.543C27.735 645.069 28.0723 644.686 28.3047 644.395C28.5417 644.103 28.7217 643.825 28.8447 643.561C28.9678 643.292 29.0293 643.009 29.0293 642.713C29.0293 642.38 28.9427 642.089 28.7695 641.838C28.5964 641.583 28.3594 641.384 28.0586 641.243C27.7624 641.102 27.4297 641.031 27.0605 641.031C26.6732 641.031 26.3337 641.109 26.042 641.264C25.7549 641.419 25.5316 641.637 25.3721 641.92C25.2126 642.198 25.1328 642.521 25.1328 642.891H23.9707C23.9661 642.316 24.0983 641.808 24.3672 641.366C24.6406 640.924 25.0166 640.58 25.4951 640.334C25.9736 640.088 26.5091 639.965 27.1016 639.965C27.6895 639.965 28.2158 640.086 28.6807 640.327C29.1501 640.569 29.5169 640.899 29.7812 641.318C30.0456 641.738 30.1777 642.202 30.1777 642.713C30.1732 643.091 30.1025 643.453 29.9658 643.8C29.8337 644.142 29.6058 644.522 29.2822 644.941C28.9587 645.361 28.5007 645.876 27.9082 646.486L25.6387 648.824V648.906H30.3555V650H23.9297L23.916 649.098ZM35.6465 650H34.4023V641.387H34.3477L31.9414 642.986V641.742L34.4023 640.102H35.6465V650Z" fill="black"/>
<path d="M22.916 679.098L26.293 675.543C26.735 675.069 27.0723 674.686 27.3047 674.395C27.5417 674.103 27.7217 673.825 27.8447 673.561C27.9678 673.292 28.0293 673.009 28.0293 672.713C28.0293 672.38 27.9427 672.089 27.7695 671.838C27.5964 671.583 27.3594 671.384 27.0586 671.243C26.7624 671.102 26.4297 671.031 26.0605 671.031C25.6732 671.031 25.3337 671.109 25.042 671.264C24.7549 671.419 24.5316 671.637 24.3721 671.92C24.2126 672.198 24.1328 672.521 24.1328 672.891H22.9707C22.9661 672.316 23.0983 671.808 23.3672 671.366C23.6406 670.924 24.0166 670.58 24.4951 670.334C24.9736 670.088 25.5091 669.965 26.1016 669.965C26.6895 669.965 27.2158 670.086 27.6807 670.327C28.1501 670.569 28.5169 670.899 28.7812 671.318C29.0456 671.738 29.1777 672.202 29.1777 672.713C29.1732 673.091 29.1025 673.453 28.9658 673.8C28.8337 674.142 28.6058 674.522 28.2822 674.941C27.9587 675.361 27.5007 675.876 26.9082 676.486L24.6387 678.824V678.906H29.3555V680H22.9297L22.916 679.098ZM31.1328 679.098L34.5098 675.543C34.9518 675.069 35.2891 674.686 35.5215 674.395C35.7585 674.103 35.9385 673.825 36.0615 673.561C36.1846 673.292 36.2461 673.009 36.2461 672.713C36.2461 672.38 36.1595 672.089 35.9863 671.838C35.8132 671.583 35.5762 671.384 35.2754 671.243C34.9792 671.102 34.6465 671.031 34.2773 671.031C33.89 671.031 33.5505 671.109 33.2588 671.264C32.9717 671.419 32.7484 671.637 32.5889 671.92C32.4294 672.198 32.3496 672.521 32.3496 672.891H31.1875C31.1829 672.316 31.3151 671.808 31.584 671.366C31.8574 670.924 32.2334 670.58 32.7119 670.334C33.1904 670.088 33.7259 669.965 34.3184 669.965C34.9062 669.965 35.4326 670.086 35.8975 670.327C36.3669 670.569 36.7337 670.899 36.998 671.318C37.2624 671.738 37.3945 672.202 37.3945 672.713C37.39 673.091 37.3193 673.453 37.1826 673.8C37.0505 674.142 36.8226 674.522 36.499 674.941C36.1755 675.361 35.7174 675.876 35.125 676.486L32.8555 678.824V678.906H37.5723V680H31.1465L31.1328 679.098Z" fill="black"/>
<path d="M22.916 709.098L26.293 705.543C26.735 705.069 27.0723 704.686 27.3047 704.395C27.5417 704.103 27.7217 703.825 27.8447 703.561C27.9678 703.292 28.0293 703.009 28.0293 702.713C28.0293 702.38 27.9427 702.089 27.7695 701.838C27.5964 701.583 27.3594 701.384 27.0586 701.243C26.7624 701.102 26.4297 701.031 26.0605 701.031C25.6732 701.031 25.3337 701.109 25.042 701.264C24.7549 701.419 24.5316 701.637 24.3721 701.92C24.2126 702.198 24.1328 702.521 24.1328 702.891H22.9707C22.9661 702.316 23.0983 701.808 23.3672 701.366C23.6406 700.924 24.0166 700.58 24.4951 700.334C24.9736 700.088 25.5091 699.965 26.1016 699.965C26.6895 699.965 27.2158 700.086 27.6807 700.327C28.1501 700.569 28.5169 700.899 28.7812 701.318C29.0456 701.738 29.1777 702.202 29.1777 702.713C29.1732 703.091 29.1025 703.453 28.9658 703.8C28.8337 704.142 28.6058 704.522 28.2822 704.941C27.9587 705.361 27.5007 705.876 26.9082 706.486L24.6387 708.824V708.906H29.3555V710H22.9297L22.916 709.098ZM34.5645 710.137C33.9128 710.137 33.3294 710.027 32.8145 709.809C32.304 709.59 31.8984 709.282 31.5977 708.886C31.2969 708.485 31.1374 708.027 31.1191 707.512H32.3633C32.3861 707.822 32.4954 708.09 32.6914 708.318C32.8919 708.546 33.1517 708.724 33.4707 708.852C33.7943 708.979 34.1543 709.043 34.5508 709.043C34.9837 709.043 35.3711 708.97 35.7129 708.824C36.0592 708.678 36.3281 708.473 36.5195 708.209C36.7109 707.945 36.8066 707.644 36.8066 707.307C36.8021 706.947 36.7064 706.628 36.5195 706.35C36.3372 706.067 36.0638 705.848 35.6992 705.693C35.3346 705.538 34.9017 705.461 34.4004 705.461H33.5938V704.381H34.4004C34.7969 704.381 35.1501 704.31 35.46 704.169C35.7744 704.028 36.016 703.829 36.1846 703.574C36.3532 703.314 36.4375 703.018 36.4375 702.686C36.4375 702.357 36.3623 702.068 36.2119 701.817C36.0615 701.567 35.8473 701.373 35.5693 701.236C35.2913 701.1 34.9655 701.031 34.5918 701.031C34.2363 701.036 33.9036 701.102 33.5938 701.229C33.2839 701.353 33.0309 701.533 32.835 701.77C32.639 702.002 32.5319 702.275 32.5137 702.59H31.3242C31.3424 702.079 31.502 701.624 31.8027 701.223C32.1035 700.822 32.5 700.512 32.9922 700.293C33.4844 700.074 34.0221 699.965 34.6055 699.965C35.2161 699.965 35.7516 700.086 36.2119 700.327C36.6722 700.569 37.0231 700.892 37.2646 701.298C37.5107 701.703 37.6315 702.143 37.627 702.617C37.6315 702.986 37.5654 703.324 37.4287 703.629C37.2965 703.93 37.1029 704.185 36.8477 704.395C36.5924 704.604 36.2917 704.759 35.9453 704.859V704.928C36.3691 704.992 36.736 705.131 37.0459 705.345C37.3604 705.559 37.5996 705.835 37.7637 706.172C37.9277 706.509 38.0098 706.887 38.0098 707.307C38.0098 707.84 37.8617 708.323 37.5654 708.756C37.2692 709.184 36.8568 709.521 36.3281 709.768C35.804 710.014 35.2161 710.137 34.5645 710.137Z" fill="black"/>
<path d="M22.916 739.098L26.293 735.543C26.735 735.069 27.0723 734.686 27.3047 734.395C27.5417 734.103 27.7217 733.825 27.8447 733.561C27.9678 733.292 28.0293 733.009 28.0293 732.713C28.0293 732.38 27.9427 732.089 27.7695 731.838C27.5964 731.583 27.3594 731.384 27.0586 731.243C26.7624 731.102 26.4297 731.031 26.0605 731.031C25.6732 731.031 25.3337 731.109 25.042 731.264C24.7549 731.419 24.5316 731.637 24.3721 731.92C24.2126 732.198 24.1328 732.521 24.1328 732.891H22.9707C22.9661 732.316 23.0983 731.808 23.3672 731.366C23.6406 730.924 24.0166 730.58 24.4951 730.334C24.9736 730.088 25.5091 729.965 26.1016 729.965C26.6895 729.965 27.2158 730.086 27.6807 730.327C28.1501 730.569 28.5169 730.899 28.7812 731.318C29.0456 731.738 29.1777 732.202 29.1777 732.713C29.1732 733.091 29.1025 733.453 28.9658 733.8C28.8337 734.142 28.6058 734.522 28.2822 734.941C27.9587 735.361 27.5007 735.876 26.9082 736.486L24.6387 738.824V738.906H29.3555V740H22.9297L22.916 739.098ZM30.6816 736.965L35.1387 730.102H35.877V731.66H35.3574L32.0078 736.814V736.896H38.0371V737.977H30.6816V736.965ZM35.4805 737.676V737.197V730.102H36.6562V740H35.4805V737.676Z" fill="black"/>
<line x1="60.5" y1="2.20822e-08" x2="60.5" y2="780" stroke="black" stroke-opacity="0.2"/>
<line y1="29.5" x2="1441" y2="29.5" stroke="black" stroke-opacity="0.2"/>
<line y1="59.5" x2="1441" y2="59.5" stroke="black" stroke-opacity="0.2"/>
<line y1="89.5" x2="1441" y2="89.5" stroke="black" stroke-opacity="0.2"/>
<line y1="119.5" x2="1441" y2="119.5" stroke="black" stroke-opacity="0.2"/>
<line y1="149.5" x2="1441" y2="149.5" stroke="black" stroke-opacity="0.2"/>
<line y1="179.5" x2="1441" y2="179.5" stroke="black" stroke-opacity="0.2"/>
<line y1="209.5" x2="1441" y2="209.5" stroke="black" stroke-opacity="0.2"/>
<line y1="239.5" x2="1441" y2="239.5" stroke="black" stroke-opacity="0.2"/>
<line y1="269.5" x2="1441" y2="269.5" stroke="black" stroke-opacity="0.2"/>
<line y1="299.5" x2="1441" y2="299.5" stroke="black" stroke-opacity="0.2"/>
<line y1="329.5" x2="1441" y2="329.5" stroke="black" stroke-opacity="0.2"/>
<line y1="359.5" x2="1441" y2="359.5" stroke="black" stroke-opacity="0.2"/>
<line y1="389.5" x2="1441" y2="389.5" stroke="black" stroke-opacity="0.2"/>
<line y1="419.5" x2="1441" y2="419.5" stroke="black" stroke-opacity="0.2"/>
<line y1="449.5" x2="1441" y2="449.5" stroke="black" stroke-opacity="0.2"/>
<line y1="479.5" x2="1441" y2="479.5" stroke="black" stroke-opacity="0.2"/>
<line y1="509.5" x2="1441" y2="509.5" stroke="black" stroke-opacity="0.2"/>
<line y1="539.5" x2="1441" y2="539.5" stroke="black" stroke-opacity="0.2"/>
<line y1="569.5" x2="1441" y2="569.5" stroke="black" stroke-opacity="0.2"/>
<line y1="599.5" x2="1441" y2="599.5" stroke="black" stroke-opacity="0.2"/>
<line y1="629.5" x2="1441" y2="629.5" stroke="black" stroke-opacity="0.2"/>
<line y1="659.5" x2="1441" y2="659.5" stroke="black" stroke-opacity="0.2"/>
<line y1="689.5" x2="1441" y2="689.5" stroke="black" stroke-opacity="0.2"/>
<line y1="719.5" x2="1441" y2="719.5" stroke="black" stroke-opacity="0.2"/>
<line y1="749.5" x2="1441" y2="749.5" stroke="black" stroke-opacity="0.2"/>
<line y1="779.5" x2="1441" y2="779.5" stroke="black" stroke-opacity="0.2"/>
<line x1="193.5" y1="2.20822e-08" x2="193.5" y2="780" stroke="black" stroke-opacity="0.2"/>
<line x1="325.5" y1="2.20822e-08" x2="325.5" y2="780" stroke="black" stroke-opacity="0.2"/>
<line x1="955.5" y1="2.20822e-08" x2="955.5" y2="780" stroke="black" stroke-opacity="0.2"/>
<line x1="1088.5" y1="2.20822e-08" x2="1088.5" y2="780" stroke="black" stroke-opacity="0.2"/>
<line x1="1240.5" y1="2.20822e-08" x2="1240.5" y2="780" stroke="black" stroke-opacity="0.2"/>
<line x1="847.5" y1="2.20822e-08" x2="847.5" y2="780" stroke="black" stroke-opacity="0.2"/>
<line x1="432.5" y1="2.20822e-08" x2="432.5" y2="780" stroke="black" stroke-opacity="0.2"/>
<line x1="531.5" y1="2.20822e-08" x2="531.5" y2="749" stroke="black" stroke-opacity="0.2"/>
<line x1="748.5" y1="2.20822e-08" x2="748.5" y2="749" stroke="black" stroke-opacity="0.2"/>
<line x1="1108.5" y1="2.20822e-08" x2="1108.5" y2="780" stroke="black" stroke-opacity="0.2"/>
<path d="M77.7656 730.641H70.5195V729.766H77.7656V730.641ZM74.1426 731.27C74.7214 731.274 75.2295 731.368 75.667 731.55C76.109 731.728 76.4508 731.983 76.6924 732.315C76.9385 732.644 77.0638 733.029 77.0684 733.471C77.0638 733.904 76.9385 734.286 76.6924 734.619C76.4508 734.947 76.109 735.202 75.667 735.385C75.2249 735.567 74.7168 735.658 74.1426 735.658C73.5638 735.658 73.0511 735.567 72.6045 735.385C72.1624 735.202 71.8206 734.947 71.5791 734.619C71.3376 734.286 71.2168 733.904 71.2168 733.471C71.2168 733.029 71.3376 732.644 71.5791 732.315C71.8206 731.983 72.1624 731.728 72.6045 731.55C73.0465 731.368 73.5592 731.274 74.1426 731.27ZM74.1426 732.104C73.7643 732.104 73.4294 732.16 73.1377 732.274C72.8506 732.388 72.6296 732.548 72.4746 732.753C72.3197 732.958 72.2422 733.197 72.2422 733.471C72.2422 733.735 72.3197 733.967 72.4746 734.168C72.6296 734.368 72.8506 734.523 73.1377 734.633C73.4294 734.742 73.7643 734.797 74.1426 734.797C74.5163 734.797 74.849 734.742 75.1406 734.633C75.4323 734.523 75.6556 734.368 75.8105 734.168C75.9701 733.967 76.0521 733.735 76.0566 733.471C76.0521 733.197 75.9701 732.958 75.8105 732.753C75.6556 732.548 75.4323 732.388 75.1406 732.274C74.849 732.16 74.5163 732.104 74.1426 732.104ZM79.9941 736.055H78.9277V728.453H79.9941V736.055ZM81.8262 732.732H79.6934V731.83H81.8262V732.732ZM79.9941 740.607H78.9277V737.6H72.0371V736.725H79.9941V740.607ZM74.6758 730.244H73.6094V728.398H74.6758V730.244ZM91.6289 730.572H83.7539V729.684H91.6289V730.572ZM93.666 738.885H82.5918V737.996H93.666V738.885ZM86.4062 738.338H85.3398V733.99H86.4062V738.338ZM92.3535 731.105C92.349 731.789 92.3376 732.37 92.3193 732.849C92.3057 733.327 92.2669 733.869 92.2031 734.476C92.1439 735.082 92.0482 735.731 91.916 736.424L90.8633 736.301C90.9954 735.649 91.0911 735.029 91.1504 734.441C91.2142 733.849 91.2529 733.327 91.2666 732.876C91.2848 732.42 91.2962 731.835 91.3008 731.119V731.037V729.684H92.3535V731.037V731.105ZM89.4277 738.338H88.375V733.99H89.4277V738.338ZM104.111 731.324H100.529V730.436H104.111V731.324ZM104.125 733.744H100.529V732.842H104.125V733.744ZM104.768 735.658H103.688V728.453H104.768V735.658ZM100.844 734.783H95.2656V729.383H100.844V734.783ZM96.332 733.908H99.791V730.258H96.332V733.908ZM100.734 736.014C101.573 736.014 102.298 736.103 102.908 736.28C103.519 736.458 103.988 736.72 104.316 737.066C104.645 737.413 104.809 737.827 104.809 738.311C104.809 738.789 104.645 739.197 104.316 739.534C103.988 739.876 103.519 740.136 102.908 740.313C102.298 740.491 101.573 740.58 100.734 740.58C99.8913 740.58 99.1644 740.491 98.5537 740.313C97.9476 740.136 97.4805 739.876 97.1523 739.534C96.8242 739.197 96.6602 738.789 96.6602 738.311C96.6602 737.827 96.8242 737.413 97.1523 737.066C97.4805 736.72 97.9476 736.458 98.5537 736.28C99.1644 736.103 99.8913 736.014 100.734 736.014ZM100.734 736.848C100.115 736.852 99.5791 736.914 99.1279 737.032C98.6768 737.146 98.3304 737.312 98.0889 737.531C97.8473 737.75 97.7266 738.01 97.7266 738.311C97.7266 738.602 97.8473 738.855 98.0889 739.069C98.3304 739.284 98.6768 739.448 99.1279 739.562C99.5791 739.675 100.115 739.732 100.734 739.732C101.35 739.732 101.883 739.675 102.334 739.562C102.79 739.448 103.138 739.284 103.38 739.069C103.621 738.855 103.742 738.602 103.742 738.311C103.742 738.01 103.621 737.75 103.38 737.531C103.138 737.312 102.792 737.146 102.341 737.032C101.89 736.914 101.354 736.852 100.734 736.848Z" fill="#B3B3B3"/>
<path d="M205.721 734.086C206.938 734.086 207.933 734.063 208.708 734.018C209.483 733.972 210.255 733.881 211.025 733.744L211.135 734.619C210.296 734.765 209.458 734.861 208.619 734.906C207.785 734.947 206.641 734.965 205.188 734.961H204.203V734.086H205.188H205.721ZM210.027 730.094H205.283V734.551H204.203V729.205H210.027V730.094ZM209.686 732.473H204.928V731.611H209.686V732.473ZM213.527 735.713H212.461V728.467H213.527V735.713ZM213.527 740.443H205.625V736.314H213.527V740.443ZM206.678 739.568H212.475V737.176H206.678V739.568ZM225.012 731.324H221.43V730.436H225.012V731.324ZM225.025 733.744H221.43V732.842H225.025V733.744ZM225.668 735.658H224.588V728.453H225.668V735.658ZM221.744 734.783H216.166V729.383H221.744V734.783ZM217.232 733.908H220.691V730.258H217.232V733.908ZM221.635 736.014C222.473 736.014 223.198 736.103 223.809 736.28C224.419 736.458 224.889 736.72 225.217 737.066C225.545 737.413 225.709 737.827 225.709 738.311C225.709 738.789 225.545 739.197 225.217 739.534C224.889 739.876 224.419 740.136 223.809 740.313C223.198 740.491 222.473 740.58 221.635 740.58C220.792 740.58 220.065 740.491 219.454 740.313C218.848 740.136 218.381 739.876 218.053 739.534C217.725 739.197 217.561 738.789 217.561 738.311C217.561 737.827 217.725 737.413 218.053 737.066C218.381 736.72 218.848 736.458 219.454 736.28C220.065 736.103 220.792 736.014 221.635 736.014ZM221.635 736.848C221.015 736.852 220.479 736.914 220.028 737.032C219.577 737.146 219.231 737.312 218.989 737.531C218.748 737.75 218.627 738.01 218.627 738.311C218.627 738.602 218.748 738.855 218.989 739.069C219.231 739.284 219.577 739.448 220.028 739.562C220.479 739.675 221.015 739.732 221.635 739.732C222.25 739.732 222.783 739.675 223.234 739.562C223.69 739.448 224.039 739.284 224.28 739.069C224.522 738.855 224.643 738.602 224.643 738.311C224.643 738.01 224.522 737.75 224.28 737.531C224.039 737.312 223.692 737.146 223.241 737.032C222.79 736.914 222.255 736.852 221.635 736.848Z" fill="#B3B3B3"/>
<path d="M345.035 733.484H341.617V732.609H345.035V733.484ZM339.566 731.721C339.562 732.6 339.411 733.462 339.115 734.305C338.824 735.143 338.42 735.891 337.905 736.547C337.39 737.203 336.814 737.7 336.176 738.037L335.479 737.176C336.066 736.889 336.604 736.458 337.092 735.884C337.584 735.305 337.971 734.651 338.254 733.922C338.536 733.188 338.678 732.454 338.678 731.721V729.506H339.566V731.721ZM339.771 731.721C339.771 732.441 339.913 733.152 340.195 733.854C340.478 734.555 340.861 735.18 341.344 735.727C341.827 736.269 342.36 736.674 342.943 736.943L342.301 737.818C341.654 737.486 341.073 737.007 340.558 736.383C340.043 735.754 339.637 735.036 339.341 734.229C339.045 733.418 338.896 732.582 338.896 731.721V729.506H339.771V731.721ZM345.568 740.635H344.502V728.453H345.568V740.635ZM357.613 740.635H356.533V728.453H357.613V740.635ZM349.369 732.705H352.992V729.492H354.045V737.695H348.303V729.492H349.369V732.705ZM352.992 736.793V733.566H349.369V736.793H352.992ZM365.57 730.244C365.57 731.087 365.333 731.873 364.859 732.603C364.385 733.327 363.77 733.94 363.014 734.441C362.262 734.943 361.473 735.289 360.648 735.48L360.156 734.578C360.872 734.441 361.574 734.159 362.262 733.73C362.954 733.302 363.522 732.78 363.964 732.165C364.406 731.55 364.627 730.91 364.627 730.244V729.314H365.57V730.244ZM365.748 730.244C365.748 730.91 365.971 731.55 366.418 732.165C366.865 732.78 367.434 733.304 368.127 733.737C368.824 734.166 369.531 734.446 370.246 734.578L369.754 735.48C368.934 735.289 368.145 734.943 367.389 734.441C366.632 733.94 366.017 733.327 365.543 732.603C365.069 731.873 364.832 731.087 364.832 730.244V729.314H365.748V730.244ZM370.82 738.953H359.691V738.064H370.82V738.953ZM381.211 731.324H377.629V730.436H381.211V731.324ZM381.225 733.744H377.629V732.842H381.225V733.744ZM381.867 735.658H380.787V728.453H381.867V735.658ZM377.943 734.783H372.365V729.383H377.943V734.783ZM373.432 733.908H376.891V730.258H373.432V733.908ZM377.834 736.014C378.673 736.014 379.397 736.103 380.008 736.28C380.618 736.458 381.088 736.72 381.416 737.066C381.744 737.413 381.908 737.827 381.908 738.311C381.908 738.789 381.744 739.197 381.416 739.534C381.088 739.876 380.618 740.136 380.008 740.313C379.397 740.491 378.673 740.58 377.834 740.58C376.991 740.58 376.264 740.491 375.653 740.313C375.047 740.136 374.58 739.876 374.252 739.534C373.924 739.197 373.76 738.789 373.76 738.311C373.76 737.827 373.924 737.413 374.252 737.066C374.58 736.72 375.047 736.458 375.653 736.28C376.264 736.103 376.991 736.014 377.834 736.014ZM377.834 736.848C377.214 736.852 376.679 736.914 376.228 737.032C375.776 737.146 375.43 737.312 375.188 737.531C374.947 737.75 374.826 738.01 374.826 738.311C374.826 738.602 374.947 738.855 375.188 739.069C375.43 739.284 375.776 739.448 376.228 739.562C376.679 739.675 377.214 739.732 377.834 739.732C378.449 739.732 378.982 739.675 379.434 739.562C379.889 739.448 380.238 739.284 380.479 739.069C380.721 738.855 380.842 738.602 380.842 738.311C380.842 738.01 380.721 737.75 380.479 737.531C380.238 737.312 379.892 737.146 379.44 737.032C378.989 736.914 378.454 736.852 377.834 736.848Z" fill="#B3B3B3"/>
<path d="M446.457 730.982C446.457 731.666 446.313 732.304 446.026 732.896C445.739 733.489 445.336 734.002 444.816 734.435C444.297 734.868 443.7 735.193 443.025 735.412L442.492 734.564C443.094 734.382 443.629 734.111 444.099 733.751C444.568 733.391 444.933 732.974 445.192 732.5C445.452 732.021 445.582 731.516 445.582 730.982V730.463H446.457V730.982ZM446.635 730.982C446.635 731.475 446.762 731.942 447.018 732.384C447.273 732.826 447.626 733.218 448.077 733.56C448.533 733.897 449.059 734.154 449.656 734.332L449.15 735.18C448.476 734.97 447.883 734.658 447.373 734.243C446.863 733.828 446.466 733.343 446.184 732.787C445.901 732.227 445.76 731.625 445.76 730.982V730.463H446.635V730.982ZM449.383 730.764H442.834V729.902H449.383V730.764ZM446.662 730.244H445.582V728.398H446.662V730.244ZM451.994 735.658H450.928V728.453H451.994V735.658ZM453.826 732.445H451.693V731.543H453.826V732.445ZM451.994 740.443H444.324V736.219H451.994V740.443ZM445.377 739.568H450.928V737.066H445.377V739.568ZM463.861 732.076H460.115V731.174H463.861V732.076ZM463.861 735.918H460.115V735.029H463.861V735.918ZM457.859 729.396C458.447 729.396 458.971 729.57 459.432 729.916C459.896 730.262 460.257 730.757 460.512 731.399C460.767 732.042 460.895 732.787 460.895 733.635C460.895 734.487 460.767 735.232 460.512 735.87C460.257 736.504 459.896 736.993 459.432 737.34C458.971 737.686 458.447 737.859 457.859 737.859C457.262 737.859 456.731 737.686 456.267 737.34C455.806 736.993 455.449 736.504 455.193 735.87C454.938 735.232 454.811 734.487 454.811 733.635C454.811 732.787 454.938 732.042 455.193 731.399C455.449 730.757 455.806 730.262 456.267 729.916C456.731 729.57 457.262 729.396 457.859 729.396ZM457.859 730.354C457.463 730.354 457.112 730.49 456.807 730.764C456.506 731.037 456.269 731.422 456.096 731.919C455.923 732.411 455.836 732.983 455.836 733.635C455.836 734.286 455.923 734.861 456.096 735.357C456.269 735.85 456.506 736.23 456.807 736.499C457.112 736.768 457.463 736.902 457.859 736.902C458.251 736.902 458.602 736.768 458.912 736.499C459.222 736.23 459.461 735.847 459.63 735.351C459.799 734.854 459.883 734.282 459.883 733.635C459.883 732.988 459.799 732.416 459.63 731.919C459.461 731.422 459.222 731.037 458.912 730.764C458.602 730.49 458.251 730.354 457.859 730.354ZM464.668 740.635H463.602V728.453H464.668V740.635ZM470.602 732.186C470.602 733.01 470.447 733.831 470.137 734.646C469.827 735.458 469.405 736.185 468.872 736.827C468.339 737.47 467.762 737.951 467.143 738.27L466.486 737.422C467.065 737.139 467.603 736.715 468.1 736.15C468.601 735.585 469 734.952 469.296 734.25C469.597 733.548 469.749 732.86 469.754 732.186V730.176H470.602V732.186ZM470.807 732.186C470.802 732.824 470.939 733.471 471.217 734.127C471.499 734.783 471.882 735.378 472.365 735.911C472.848 736.44 473.382 736.843 473.965 737.121L473.35 737.969C472.716 737.659 472.14 737.201 471.62 736.595C471.105 735.989 470.697 735.3 470.396 734.53C470.096 733.756 469.945 732.974 469.945 732.186V730.176H470.807V732.186ZM473.541 730.6H466.924V729.711H473.541V730.6ZM476.098 740.607H475.031V728.453H476.098V740.607ZM478.135 734.291H475.852V733.375H478.135V734.291Z" fill="#B3B3B3"/>
<path d="M76.0293 766.875C76.918 766.875 77.6722 766.946 78.292 767.087C78.9163 767.228 79.3903 767.44 79.7139 767.723C80.042 768.001 80.2083 768.342 80.2129 768.748C80.2083 769.345 79.8438 769.799 79.1191 770.108C78.3991 770.423 77.3691 770.58 76.0293 770.58C74.6758 770.58 73.6367 770.423 72.9121 770.108C72.1875 769.799 71.8275 769.345 71.832 768.748C71.8275 768.137 72.1875 767.673 72.9121 767.354C73.6367 767.03 74.6758 766.87 76.0293 766.875ZM76.0293 767.682C75.373 767.682 74.8148 767.723 74.3545 767.805C73.8942 767.887 73.541 768.007 73.2949 768.167C73.0488 768.326 72.9258 768.52 72.9258 768.748C72.9258 768.967 73.0488 769.154 73.2949 769.309C73.541 769.464 73.8942 769.58 74.3545 769.657C74.8148 769.735 75.373 769.773 76.0293 769.773C76.681 769.773 77.237 769.735 77.6973 769.657C78.1621 769.58 78.5153 769.464 78.7568 769.309C78.9984 769.154 79.1191 768.967 79.1191 768.748C79.1191 768.52 78.9984 768.326 78.7568 768.167C78.5153 768.007 78.1644 767.887 77.7041 767.805C77.2438 767.723 76.6855 767.682 76.0293 767.682ZM80.9238 760.34H71.0664V759.479H80.9238V760.34ZM76.0293 760.832C77.3008 760.837 78.2738 760.987 78.9482 761.283C79.6273 761.575 79.9668 762.008 79.9668 762.582C79.9668 763.143 79.6273 763.571 78.9482 763.867C78.2692 764.159 77.2962 764.305 76.0293 764.305C74.7578 764.305 73.7803 764.159 73.0967 763.867C72.4176 763.571 72.0781 763.143 72.0781 762.582C72.0781 762.008 72.4176 761.575 73.0967 761.283C73.7757 760.987 74.7533 760.837 76.0293 760.832ZM76.0293 761.598C75.4368 761.598 74.931 761.634 74.5117 761.707C74.0924 761.78 73.7734 761.892 73.5547 762.042C73.3359 762.188 73.2266 762.368 73.2266 762.582C73.2266 762.783 73.3359 762.953 73.5547 763.095C73.7734 763.236 74.0924 763.345 74.5117 763.423C74.931 763.5 75.4368 763.539 76.0293 763.539C76.6217 763.539 77.1276 763.5 77.5469 763.423C77.9661 763.345 78.2852 763.236 78.5039 763.095C78.7227 762.953 78.832 762.783 78.832 762.582C78.832 762.368 78.7227 762.188 78.5039 762.042C78.2852 761.892 77.9661 761.78 77.5469 761.707C77.1276 761.634 76.6217 761.598 76.0293 761.598ZM76.5625 760.025H75.4961V758.289H76.5625V760.025ZM81.5664 766.109H70.4922V765.248H81.5664V766.109ZM76.5625 765.686H75.4961V763.99H76.5625V765.686ZM92.627 770.607H91.5605V767.244H84.4512V766.342H92.627V770.607ZM92.627 765.686H91.5605V758.453H92.627V765.686ZM86.0645 759.191C86.6751 759.191 87.222 759.312 87.7051 759.554C88.1882 759.795 88.5664 760.132 88.8398 760.565C89.1133 760.998 89.25 761.493 89.25 762.049C89.25 762.609 89.1133 763.108 88.8398 763.546C88.5664 763.979 88.1882 764.318 87.7051 764.564C87.222 764.811 86.6751 764.934 86.0645 764.934C85.4538 764.934 84.9069 764.811 84.4238 764.564C83.9408 764.318 83.5625 763.979 83.2891 763.546C83.0156 763.108 82.8789 762.609 82.8789 762.049C82.8789 761.493 83.0156 760.998 83.2891 760.565C83.5625 760.132 83.9408 759.795 84.4238 759.554C84.9069 759.312 85.4538 759.191 86.0645 759.191ZM86.0645 760.107C85.6497 760.107 85.2806 760.189 84.957 760.354C84.638 760.518 84.3851 760.748 84.1982 761.044C84.016 761.34 83.9271 761.675 83.9316 762.049C83.9271 762.432 84.016 762.771 84.1982 763.067C84.3851 763.364 84.638 763.596 84.957 763.765C85.2806 763.929 85.6497 764.008 86.0645 764.004C86.4746 764.008 86.8415 763.929 87.165 763.765C87.4886 763.596 87.7415 763.364 87.9238 763.067C88.1061 762.771 88.1973 762.432 88.1973 762.049C88.1973 761.675 88.1061 761.34 87.9238 761.044C87.7415 760.748 87.4886 760.518 87.165 760.354C86.8415 760.189 86.4746 760.107 86.0645 760.107ZM105.082 770.607H104.057V758.453H105.082V770.607ZM104.33 764.236H101.951V763.348H104.33V764.236ZM102.266 769.979H101.281V758.727H102.266V769.979ZM95.9219 766.684C96.9108 766.684 97.7334 766.661 98.3896 766.615C99.0505 766.57 99.7181 766.479 100.393 766.342L100.488 767.244C99.8047 767.385 99.1302 767.479 98.4648 767.524C97.7995 767.57 96.9518 767.595 95.9219 767.6H95.1426V766.684H95.9219ZM99.6953 760.832H96.209V767.107H95.1426V759.943H99.6953V760.832ZM114.064 760.641H106.818V759.766H114.064V760.641ZM110.441 761.27C111.02 761.274 111.528 761.368 111.966 761.55C112.408 761.728 112.75 761.983 112.991 762.315C113.237 762.644 113.363 763.029 113.367 763.471C113.363 763.904 113.237 764.286 112.991 764.619C112.75 764.947 112.408 765.202 111.966 765.385C111.524 765.567 111.016 765.658 110.441 765.658C109.863 765.658 109.35 765.567 108.903 765.385C108.461 765.202 108.119 764.947 107.878 764.619C107.636 764.286 107.516 763.904 107.516 763.471C107.516 763.029 107.636 762.644 107.878 762.315C108.119 761.983 108.461 761.728 108.903 761.55C109.345 761.368 109.858 761.274 110.441 761.27ZM110.441 762.104C110.063 762.104 109.728 762.16 109.437 762.274C109.149 762.388 108.928 762.548 108.773 762.753C108.618 762.958 108.541 763.197 108.541 763.471C108.541 763.735 108.618 763.967 108.773 764.168C108.928 764.368 109.149 764.523 109.437 764.633C109.728 764.742 110.063 764.797 110.441 764.797C110.815 764.797 111.148 764.742 111.439 764.633C111.731 764.523 111.954 764.368 112.109 764.168C112.269 763.967 112.351 763.735 112.355 763.471C112.351 763.197 112.269 762.958 112.109 762.753C111.954 762.548 111.731 762.388 111.439 762.274C111.148 762.16 110.815 762.104 110.441 762.104ZM116.293 766.055H115.227V758.453H116.293V766.055ZM118.125 762.732H115.992V761.83H118.125V762.732ZM116.293 770.607H115.227V767.6H108.336V766.725H116.293V770.607ZM110.975 760.244H109.908V758.398H110.975V760.244ZM127.928 760.572H120.053V759.684H127.928V760.572ZM129.965 768.885H118.891V767.996H129.965V768.885ZM122.705 768.338H121.639V763.99H122.705V768.338ZM128.652 761.105C128.648 761.789 128.636 762.37 128.618 762.849C128.604 763.327 128.566 763.869 128.502 764.476C128.443 765.082 128.347 765.731 128.215 766.424L127.162 766.301C127.294 765.649 127.39 765.029 127.449 764.441C127.513 763.849 127.552 763.327 127.565 762.876C127.584 762.42 127.595 761.835 127.6 761.119V761.037V759.684H128.652V761.037V761.105ZM125.727 768.338H124.674V763.99H125.727V768.338Z" fill="#B3B3B3"/>
<path d="M203.943 762.076H205.078V763.238H205.174C205.329 762.842 205.579 762.534 205.926 762.315C206.272 762.092 206.687 761.98 207.17 761.98C207.489 761.98 207.776 762.028 208.031 762.124C208.286 762.22 208.507 762.363 208.694 762.555C208.881 762.742 209.034 762.969 209.152 763.238H209.234C209.362 762.983 209.533 762.76 209.747 762.568C209.961 762.377 210.212 762.231 210.499 762.131C210.791 762.031 211.112 761.98 211.463 761.98C211.914 761.98 212.308 762.074 212.646 762.261C212.987 762.448 213.254 762.732 213.445 763.115C213.637 763.498 213.732 763.972 213.732 764.537V769.5H212.557V764.551C212.552 764.036 212.411 763.655 212.133 763.409C211.855 763.159 211.495 763.033 211.053 763.033C210.715 763.033 210.426 763.104 210.185 763.245C209.943 763.386 209.756 763.58 209.624 763.826C209.496 764.072 209.43 764.355 209.426 764.674V769.5H208.236V764.428C208.236 764.154 208.177 763.91 208.059 763.696C207.94 763.482 207.769 763.318 207.546 763.204C207.323 763.09 207.07 763.033 206.787 763.033C206.491 763.033 206.215 763.111 205.96 763.266C205.709 763.421 205.507 763.639 205.352 763.922C205.197 764.2 205.119 764.514 205.119 764.865V769.5H203.943V762.076ZM215.619 762.076H216.795V769.5H215.619V762.076ZM216.207 760.846C216.057 760.846 215.918 760.809 215.79 760.736C215.667 760.663 215.569 760.57 215.496 760.456C215.423 760.338 215.387 760.208 215.387 760.066C215.387 759.925 215.423 759.795 215.496 759.677C215.569 759.554 215.667 759.458 215.79 759.39C215.918 759.321 216.057 759.287 216.207 759.287C216.353 759.287 216.49 759.321 216.617 759.39C216.745 759.458 216.847 759.554 216.925 759.677C217.002 759.795 217.041 759.925 217.041 760.066C217.041 760.208 217.002 760.338 216.925 760.456C216.847 760.57 216.745 760.663 216.617 760.736C216.49 760.809 216.353 760.846 216.207 760.846ZM219.844 769.5H218.668V762.076H219.803V763.238H219.898C220.081 762.842 220.352 762.534 220.712 762.315C221.076 762.092 221.53 761.98 222.072 761.98C222.583 761.98 223.025 762.083 223.398 762.288C223.772 762.493 224.062 762.808 224.267 763.231C224.472 763.651 224.574 764.168 224.574 764.783V769.5H223.398V764.865C223.398 764.487 223.332 764.161 223.2 763.888C223.068 763.61 222.874 763.398 222.619 763.252C222.368 763.106 222.068 763.033 221.717 763.033C221.352 763.033 221.029 763.111 220.746 763.266C220.464 763.421 220.243 763.651 220.083 763.956C219.924 764.261 219.844 764.624 219.844 765.043V769.5ZM229.264 769.65C228.648 769.65 228.102 769.493 227.623 769.179C227.149 768.864 226.778 768.418 226.509 767.839C226.24 767.26 226.105 766.583 226.105 765.809C226.105 765.038 226.24 764.364 226.509 763.785C226.778 763.202 227.151 762.755 227.63 762.445C228.108 762.135 228.658 761.98 229.277 761.98C229.692 761.98 230.038 762.044 230.316 762.172C230.599 762.299 230.813 762.445 230.959 762.609C231.105 762.773 231.242 762.96 231.369 763.17C231.383 763.188 231.392 763.202 231.396 763.211C231.401 763.22 231.41 763.234 231.424 763.252H231.506V759.602H232.695V769.5H231.547V768.365H231.424L231.383 768.42C231.246 768.639 231.103 768.832 230.952 769.001C230.802 769.17 230.585 769.32 230.303 769.452C230.025 769.584 229.678 769.65 229.264 769.65ZM229.428 768.598C229.874 768.598 230.257 768.479 230.576 768.242C230.895 768.005 231.134 767.677 231.294 767.258C231.458 766.834 231.542 766.342 231.547 765.781C231.542 765.23 231.458 764.747 231.294 764.332C231.134 763.913 230.895 763.591 230.576 763.368C230.262 763.145 229.879 763.033 229.428 763.033C228.967 763.033 228.576 763.152 228.252 763.389C227.933 763.626 227.694 763.951 227.534 764.366C227.375 764.781 227.295 765.253 227.295 765.781C227.295 766.319 227.377 766.8 227.541 767.224C227.705 767.647 227.947 767.982 228.266 768.229C228.585 768.475 228.972 768.598 229.428 768.598ZM241.281 769.65C240.611 769.65 240.019 769.491 239.504 769.172C238.993 768.853 238.597 768.406 238.314 767.832C238.032 767.253 237.891 766.583 237.891 765.822C237.891 765.057 238.032 764.384 238.314 763.806C238.597 763.227 238.993 762.778 239.504 762.459C240.019 762.14 240.611 761.98 241.281 761.98C241.947 761.98 242.535 762.14 243.045 762.459C243.555 762.778 243.95 763.227 244.228 763.806C244.506 764.384 244.645 765.057 244.645 765.822C244.645 766.583 244.506 767.253 244.228 767.832C243.95 768.406 243.555 768.853 243.045 769.172C242.535 769.491 241.947 769.65 241.281 769.65ZM241.281 768.611C241.76 768.611 242.163 768.486 242.491 768.235C242.824 767.985 243.07 767.647 243.229 767.224C243.389 766.8 243.469 766.333 243.469 765.822C243.469 765.312 243.389 764.845 243.229 764.421C243.07 763.997 242.824 763.658 242.491 763.402C242.163 763.147 241.76 763.02 241.281 763.02C240.798 763.02 240.39 763.147 240.058 763.402C239.725 763.658 239.477 763.997 239.312 764.421C239.153 764.845 239.071 765.312 239.066 765.822C239.071 766.333 239.153 766.8 239.312 767.224C239.477 767.647 239.725 767.985 240.058 768.235C240.39 768.486 240.798 768.611 241.281 768.611ZM247.365 769.5H246.189V762.076H247.324V763.238H247.42C247.602 762.842 247.873 762.534 248.233 762.315C248.598 762.092 249.051 761.98 249.594 761.98C250.104 761.98 250.546 762.083 250.92 762.288C251.294 762.493 251.583 762.808 251.788 763.231C251.993 763.651 252.096 764.168 252.096 764.783V769.5H250.92V764.865C250.92 764.487 250.854 764.161 250.722 763.888C250.59 763.61 250.396 763.398 250.141 763.252C249.89 763.106 249.589 763.033 249.238 763.033C248.874 763.033 248.55 763.111 248.268 763.266C247.985 763.421 247.764 763.651 247.604 763.956C247.445 764.261 247.365 764.624 247.365 765.043V769.5Z" fill="#B3B3B3"/>
<path d="M337.57 759.602L340.906 767.75H341.029L344.365 759.602H345.842V769.5H344.68V762.021H344.584L341.508 769.5H340.414L337.338 762.021H337.256V769.5H336.094V759.602H337.57ZM347.879 762.076H349.055V769.5H347.879V762.076ZM348.467 760.846C348.316 760.846 348.177 760.809 348.05 760.736C347.927 760.663 347.829 760.57 347.756 760.456C347.683 760.338 347.646 760.208 347.646 760.066C347.646 759.925 347.683 759.795 347.756 759.677C347.829 759.554 347.927 759.458 348.05 759.39C348.177 759.321 348.316 759.287 348.467 759.287C348.613 759.287 348.749 759.321 348.877 759.39C349.005 759.458 349.107 759.554 349.185 759.677C349.262 759.795 349.301 759.925 349.301 760.066C349.301 760.208 349.262 760.338 349.185 760.456C349.107 760.57 349.005 760.663 348.877 760.736C348.749 760.809 348.613 760.846 348.467 760.846ZM352.104 769.5H350.928V762.076H352.062V763.238H352.158C352.34 762.842 352.612 762.534 352.972 762.315C353.336 762.092 353.79 761.98 354.332 761.98C354.842 761.98 355.285 762.083 355.658 762.288C356.032 762.493 356.321 762.808 356.526 763.231C356.731 763.651 356.834 764.168 356.834 764.783V769.5H355.658V764.865C355.658 764.487 355.592 764.161 355.46 763.888C355.328 763.61 355.134 763.398 354.879 763.252C354.628 763.106 354.327 763.033 353.977 763.033C353.612 763.033 353.288 763.111 353.006 763.266C352.723 763.421 352.502 763.651 352.343 763.956C352.183 764.261 352.104 764.624 352.104 765.043V769.5ZM361.523 769.65C360.908 769.65 360.361 769.493 359.883 769.179C359.409 768.864 359.037 768.418 358.769 767.839C358.5 767.26 358.365 766.583 358.365 765.809C358.365 765.038 358.5 764.364 358.769 763.785C359.037 763.202 359.411 762.755 359.89 762.445C360.368 762.135 360.917 761.98 361.537 761.98C361.952 761.98 362.298 762.044 362.576 762.172C362.859 762.299 363.073 762.445 363.219 762.609C363.365 762.773 363.501 762.96 363.629 763.17C363.643 763.188 363.652 763.202 363.656 763.211C363.661 763.22 363.67 763.234 363.684 763.252H363.766V759.602H364.955V769.5H363.807V768.365H363.684L363.643 768.42C363.506 768.639 363.362 768.832 363.212 769.001C363.062 769.17 362.845 769.32 362.562 769.452C362.285 769.584 361.938 769.65 361.523 769.65ZM361.688 768.598C362.134 768.598 362.517 768.479 362.836 768.242C363.155 768.005 363.394 767.677 363.554 767.258C363.718 766.834 363.802 766.342 363.807 765.781C363.802 765.23 363.718 764.747 363.554 764.332C363.394 763.913 363.155 763.591 362.836 763.368C362.521 763.145 362.139 763.033 361.688 763.033C361.227 763.033 360.835 763.152 360.512 763.389C360.193 763.626 359.953 763.951 359.794 764.366C359.634 764.781 359.555 765.253 359.555 765.781C359.555 766.319 359.637 766.8 359.801 767.224C359.965 767.647 360.206 767.982 360.525 768.229C360.844 768.475 361.232 768.598 361.688 768.598ZM371.531 766.055C371.267 766.073 371.069 766.087 370.937 766.096C370.809 766.105 370.615 766.118 370.355 766.137C370.091 766.155 369.827 766.173 369.562 766.191C369.007 766.228 368.576 766.349 368.271 766.554C367.97 766.759 367.817 767.057 367.812 767.449C367.812 767.704 367.881 767.921 368.018 768.099C368.154 768.276 368.337 768.411 368.564 768.502C368.797 768.589 369.066 768.63 369.371 768.625C369.795 768.625 370.162 768.541 370.472 768.372C370.786 768.203 371.025 767.98 371.189 767.702C371.354 767.424 371.436 767.126 371.436 766.807V764.496C371.436 764.182 371.374 763.913 371.251 763.689C371.128 763.462 370.939 763.291 370.684 763.177C370.433 763.063 370.123 763.006 369.754 763.006C369.303 763.006 368.934 763.099 368.646 763.286C368.359 763.468 368.173 763.708 368.086 764.004H366.855C366.906 763.607 367.061 763.257 367.32 762.951C367.585 762.641 367.931 762.402 368.359 762.233C368.788 762.065 369.271 761.98 369.809 761.98C370.237 761.98 370.659 762.044 371.073 762.172C371.488 762.299 371.846 762.559 372.146 762.951C372.447 763.339 372.598 763.89 372.598 764.605V769.5H371.436V768.488H371.381C371.23 768.798 370.968 769.074 370.595 769.315C370.226 769.552 369.749 769.673 369.166 769.678C368.692 769.673 368.264 769.582 367.881 769.404C367.498 769.222 367.195 768.96 366.972 768.618C366.748 768.272 366.637 767.864 366.637 767.395C366.637 766.629 366.899 766.089 367.423 765.774C367.951 765.455 368.619 765.266 369.426 765.207C369.64 765.189 369.886 765.173 370.164 765.159C370.442 765.141 370.715 765.125 370.984 765.111C371.162 765.107 371.34 765.102 371.518 765.098L371.531 766.055ZM374.484 762.076H375.619V763.211H375.701C375.833 762.837 376.075 762.536 376.426 762.309C376.781 762.076 377.178 761.958 377.615 761.953C377.984 761.967 378.189 761.976 378.23 761.98V763.17C378.153 763.152 378.048 763.133 377.916 763.115C377.784 763.097 377.652 763.088 377.52 763.088C377.169 763.088 376.852 763.163 376.569 763.313C376.291 763.464 376.07 763.671 375.906 763.936C375.742 764.2 375.66 764.496 375.66 764.824V769.5H374.484V762.076ZM380.363 772.289C380.026 772.28 379.807 772.271 379.707 772.262V771.209C379.762 771.214 379.953 771.223 380.281 771.236C380.482 771.232 380.648 771.209 380.78 771.168C380.912 771.132 381.042 771.031 381.17 770.867C381.302 770.708 381.43 770.457 381.553 770.115L381.771 769.555L379.023 762.076H380.309L382.332 767.969H382.414L384.438 762.076H385.723L382.578 770.566C382.359 771.15 382.068 771.58 381.703 771.858C381.339 772.141 380.892 772.285 380.363 772.289Z" fill="#B3B3B3"/>
<path d="M446.676 761.064C446.676 761.789 446.532 762.47 446.245 763.108C445.958 763.742 445.552 764.298 445.028 764.776C444.509 765.25 443.91 765.613 443.23 765.863L442.67 765.002C443.276 764.792 443.814 764.487 444.283 764.086C444.757 763.685 445.126 763.222 445.391 762.698C445.655 762.174 445.787 761.63 445.787 761.064V759.793H446.676V761.064ZM446.867 761.064C446.867 761.602 447.002 762.117 447.271 762.609C447.539 763.102 447.909 763.535 448.378 763.908C448.847 764.282 449.383 764.564 449.984 764.756L449.438 765.617C448.763 765.385 448.166 765.045 447.646 764.599C447.127 764.147 446.719 763.619 446.423 763.013C446.127 762.407 445.979 761.757 445.979 761.064V759.793H446.867V761.064ZM449.67 760.354H442.943V759.479H449.67V760.354ZM452.527 767.381H451.461V758.467H452.527V767.381ZM452.91 770.348H444.68V769.445H452.91V770.348ZM445.746 769.842H444.68V766.533H445.746V769.842ZM461.906 762.295H459.473V761.406H461.906V762.295ZM461.906 766H459.473V765.098H461.906V766ZM465.01 770.607H463.971V758.453H465.01V770.607ZM462.59 769.992H461.564V758.713H462.59V769.992ZM457.354 759.479C457.878 759.479 458.336 759.652 458.728 759.998C459.124 760.344 459.432 760.837 459.65 761.475C459.869 762.108 459.979 762.851 459.979 763.703C459.979 764.555 459.869 765.3 459.65 765.938C459.432 766.572 459.124 767.062 458.728 767.408C458.336 767.755 457.878 767.928 457.354 767.928C456.829 767.928 456.371 767.755 455.979 767.408C455.592 767.062 455.289 766.572 455.07 765.938C454.852 765.3 454.742 764.555 454.742 763.703C454.742 762.851 454.852 762.108 455.07 761.475C455.289 760.837 455.592 760.344 455.979 759.998C456.371 759.652 456.829 759.479 457.354 759.479ZM457.354 760.49C457.025 760.49 456.741 760.62 456.499 760.88C456.257 761.14 456.071 761.513 455.938 762.001C455.806 762.484 455.74 763.051 455.74 763.703C455.74 764.355 455.806 764.922 455.938 765.405C456.071 765.884 456.257 766.255 456.499 766.52C456.741 766.779 457.025 766.907 457.354 766.902C457.682 766.907 457.969 766.779 458.215 766.52C458.461 766.255 458.65 765.884 458.782 765.405C458.914 764.922 458.98 764.355 458.98 763.703C458.98 763.051 458.914 762.484 458.782 762.001C458.65 761.513 458.461 761.14 458.215 760.88C457.969 760.62 457.682 760.49 457.354 760.49ZM471.271 767.271H470.191V764.564H471.271V767.271ZM476.713 767.695H475.633V758.467H476.713V767.695ZM477.014 770.348H468.373V769.445H477.014V770.348ZM469.453 769.705H468.373V766.793H469.453V769.705ZM466.623 764.1C468.25 764.09 469.69 764.065 470.943 764.024C472.197 763.979 473.395 763.885 474.539 763.744L474.607 764.523C473.427 764.71 472.19 764.833 470.896 764.893C469.601 764.952 468.227 764.979 466.773 764.975L466.623 764.1ZM475.92 766.438H473.117V765.658H475.92V766.438ZM470.615 758.959C471.203 758.959 471.725 759.046 472.181 759.219C472.641 759.392 472.996 759.64 473.247 759.964C473.498 760.287 473.623 760.659 473.623 761.078C473.623 761.507 473.498 761.878 473.247 762.192C472.996 762.507 472.643 762.751 472.188 762.924C471.732 763.097 471.208 763.184 470.615 763.184C470.018 763.184 469.492 763.097 469.036 762.924C468.585 762.751 468.234 762.507 467.983 762.192C467.733 761.878 467.607 761.507 467.607 761.078C467.607 760.659 467.733 760.287 467.983 759.964C468.234 759.64 468.587 759.392 469.043 759.219C469.499 759.046 470.023 758.959 470.615 758.959ZM470.615 759.779C470.223 759.775 469.877 759.827 469.576 759.937C469.275 760.041 469.041 760.194 468.872 760.395C468.708 760.595 468.628 760.823 468.633 761.078C468.628 761.338 468.708 761.568 468.872 761.769C469.041 761.965 469.275 762.117 469.576 762.227C469.877 762.336 470.223 762.391 470.615 762.391C470.998 762.391 471.34 762.336 471.641 762.227C471.941 762.117 472.176 761.965 472.345 761.769C472.513 761.568 472.598 761.338 472.598 761.078C472.598 760.823 472.513 760.595 472.345 760.395C472.176 760.194 471.941 760.041 471.641 759.937C471.34 759.827 470.998 759.775 470.615 759.779Z" fill="#B3B3B3"/>
<path d="M813.309 765.562H802.18V764.674H813.309V765.562ZM808.359 768.051H807.293V765.221H808.359V768.051ZM811.859 763.279H803.629V759.055H811.859V763.279ZM804.682 762.418H810.793V759.902H804.682V762.418ZM812.064 770.348H803.602V769.445H812.064V770.348ZM804.682 769.76H803.602V766.848H804.682V769.76ZM815.865 764.25C817.146 764.25 818.169 764.225 818.935 764.175C819.705 764.125 820.468 764.022 821.225 763.867L821.348 764.742C820.805 764.856 820.272 764.943 819.748 765.002C819.229 765.057 818.666 765.095 818.06 765.118C817.458 765.136 816.727 765.143 815.865 765.139H814.963V764.25H815.865ZM820.555 760.189H816.029V764.564H814.963V759.301H820.555V760.189ZM824.369 770.607H823.289V767.217H816.193V766.342H824.369V770.607ZM824.369 765.713H823.289V758.453H824.369V765.713ZM823.59 762.486H819.83V761.611H823.59V762.486ZM835.717 761.092H831.998V760.217H835.717V761.092ZM835.717 763.922H831.998V763.033H835.717V763.922ZM829.742 759.191C830.335 759.191 830.87 759.312 831.349 759.554C831.827 759.795 832.201 760.137 832.47 760.579C832.743 761.017 832.882 761.516 832.887 762.076C832.882 762.632 832.743 763.127 832.47 763.56C832.201 763.993 831.827 764.332 831.349 764.578C830.87 764.824 830.335 764.947 829.742 764.947C829.141 764.947 828.601 764.824 828.122 764.578C827.644 764.332 827.268 763.993 826.994 763.56C826.721 763.127 826.584 762.632 826.584 762.076C826.584 761.516 826.721 761.017 826.994 760.579C827.268 760.137 827.644 759.795 828.122 759.554C828.601 759.312 829.141 759.191 829.742 759.191ZM829.742 760.121C829.332 760.121 828.965 760.203 828.642 760.367C828.318 760.531 828.065 760.764 827.883 761.064C827.701 761.361 827.609 761.698 827.609 762.076C827.609 762.45 827.701 762.785 827.883 763.081C828.065 763.377 828.318 763.61 828.642 763.778C828.965 763.947 829.332 764.031 829.742 764.031C830.139 764.031 830.496 763.947 830.815 763.778C831.139 763.61 831.392 763.377 831.574 763.081C831.757 762.78 831.848 762.445 831.848 762.076C831.848 761.698 831.757 761.361 831.574 761.064C831.392 760.764 831.139 760.531 830.815 760.367C830.496 760.203 830.139 760.121 829.742 760.121ZM836.469 765.658H835.389V758.453H836.469V765.658ZM832.436 765.945C833.274 765.945 833.999 766.036 834.609 766.219C835.22 766.401 835.689 766.665 836.018 767.012C836.346 767.358 836.51 767.773 836.51 768.256C836.51 768.743 836.346 769.16 836.018 769.507C835.689 769.858 835.22 770.124 834.609 770.307C833.999 770.489 833.274 770.58 832.436 770.58C831.597 770.58 830.872 770.489 830.262 770.307C829.651 770.124 829.182 769.858 828.854 769.507C828.525 769.16 828.361 768.743 828.361 768.256C828.361 767.773 828.525 767.358 828.854 767.012C829.182 766.665 829.651 766.401 830.262 766.219C830.872 766.036 831.597 765.945 832.436 765.945ZM832.436 766.779C831.816 766.779 831.278 766.839 830.822 766.957C830.367 767.076 830.018 767.246 829.776 767.47C829.535 767.688 829.414 767.951 829.414 768.256C829.414 768.557 829.537 768.816 829.783 769.035C830.029 769.254 830.378 769.423 830.829 769.541C831.28 769.66 831.816 769.719 832.436 769.719C833.055 769.719 833.593 769.66 834.049 769.541C834.505 769.423 834.853 769.254 835.095 769.035C835.336 768.816 835.457 768.557 835.457 768.256C835.457 767.951 835.336 767.688 835.095 767.47C834.853 767.246 834.505 767.076 834.049 766.957C833.593 766.839 833.055 766.779 832.436 766.779Z" fill="#B3B3B3"/>
<path opacity="0.3" d="M523.994 766.309H522.928V758.953H523.994V766.309ZM525.826 763.014H523.693V762.125H525.826V763.014ZM523.994 771.107H522.928V767.826H516.037V766.951H523.994V771.107ZM516.064 761.633H519.605V759.719H520.672V765.461H515.012V759.719H516.064V761.633ZM519.605 764.586V762.494H516.064V764.586H519.605ZM537.721 769.521H526.592V768.633H537.721V769.521ZM532.621 768.934H531.568V765.652H532.621V768.934ZM532.471 760.717C532.471 761.546 532.231 762.316 531.753 763.027C531.274 763.738 530.655 764.333 529.894 764.812C529.132 765.29 528.337 765.616 527.508 765.789L527.029 764.9C527.749 764.777 528.458 764.511 529.155 764.101C529.853 763.686 530.422 763.182 530.864 762.59C531.306 761.993 531.527 761.368 531.527 760.717V759.787H532.471V760.717ZM532.648 760.717C532.648 761.364 532.874 761.986 533.325 762.583C533.776 763.18 534.351 763.686 535.048 764.101C535.75 764.511 536.458 764.777 537.174 764.9L536.695 765.789C535.866 765.616 535.071 765.29 534.31 764.812C533.549 764.333 532.926 763.738 532.443 763.027C531.965 762.316 531.728 761.546 531.732 760.717V759.787H532.648V760.717ZM549.766 766.24H538.691V765.365H549.766V766.24ZM548.535 770.848H540.127V769.945H548.535V770.848ZM541.207 770.219H540.127V767.307H541.207V770.219ZM544.229 759.391C545.094 759.386 545.851 759.479 546.498 759.671C547.145 759.858 547.644 760.133 547.995 760.498C548.346 760.863 548.521 761.296 548.521 761.797C548.521 762.294 548.346 762.724 547.995 763.089C547.644 763.449 547.145 763.727 546.498 763.923C545.851 764.119 545.094 764.217 544.229 764.217C543.354 764.217 542.592 764.119 541.945 763.923C541.298 763.727 540.799 763.449 540.448 763.089C540.097 762.724 539.922 762.294 539.922 761.797C539.922 761.296 540.097 760.863 540.448 760.498C540.799 760.133 541.298 759.858 541.945 759.671C542.592 759.479 543.354 759.386 544.229 759.391ZM544.229 760.252C543.581 760.252 543.016 760.313 542.533 760.437C542.05 760.56 541.679 760.74 541.419 760.977C541.159 761.209 541.029 761.482 541.029 761.797C541.029 762.116 541.159 762.392 541.419 762.624C541.679 762.856 542.048 763.034 542.526 763.157C543.009 763.28 543.577 763.342 544.229 763.342C544.876 763.342 545.441 763.28 545.924 763.157C546.407 763.034 546.778 762.856 547.038 762.624C547.298 762.392 547.428 762.116 547.428 761.797C547.428 761.482 547.298 761.209 547.038 760.977C546.778 760.74 546.405 760.56 545.917 760.437C545.434 760.313 544.871 760.252 544.229 760.252Z" fill="black"/>
<path opacity="0.3" d="M595.994 766.254H594.928V758.953H595.994V766.254ZM597.826 763.014H595.693V762.125H597.826V763.014ZM592.686 759.855C592.686 760.876 592.455 761.806 591.995 762.645C591.535 763.483 590.876 764.21 590.02 764.825C589.163 765.436 588.142 765.917 586.957 766.268L586.506 765.393C587.545 765.092 588.443 764.691 589.199 764.189C589.956 763.688 590.535 763.112 590.936 762.46C591.341 761.808 591.546 761.104 591.551 760.348V759.855H592.686ZM592.152 760.744H587.039V759.855H592.152V760.744ZM592.152 766.391C592.959 766.391 593.661 766.484 594.258 766.671C594.859 766.858 595.322 767.127 595.646 767.478C595.969 767.828 596.131 768.245 596.131 768.729C596.131 769.216 595.969 769.638 595.646 769.993C595.322 770.344 594.862 770.613 594.265 770.8C593.668 770.987 592.964 771.08 592.152 771.08C591.346 771.08 590.642 770.987 590.04 770.8C589.443 770.613 588.983 770.344 588.659 769.993C588.336 769.638 588.174 769.216 588.174 768.729C588.174 768.25 588.336 767.835 588.659 767.484C588.983 767.129 589.445 766.858 590.047 766.671C590.648 766.484 591.35 766.391 592.152 766.391ZM592.152 767.252C591.56 767.252 591.045 767.311 590.607 767.43C590.17 767.548 589.83 767.719 589.589 767.942C589.352 768.166 589.236 768.428 589.24 768.729C589.236 769.029 589.352 769.291 589.589 769.515C589.83 769.738 590.17 769.911 590.607 770.034C591.049 770.157 591.564 770.219 592.152 770.219C592.74 770.219 593.255 770.157 593.697 770.034C594.144 769.911 594.488 769.738 594.729 769.515C594.971 769.291 595.092 769.029 595.092 768.729C595.092 768.428 594.971 768.166 594.729 767.942C594.488 767.719 594.146 767.548 593.704 767.43C593.262 767.311 592.745 767.252 592.152 767.252ZM604.936 765.652H599.234V760.02H604.936V765.652ZM600.287 764.791H603.883V760.908H600.287V764.791ZM608.627 767.703H607.561V758.967H608.627V767.703ZM609.01 770.697H600.779V769.809H609.01V770.697ZM601.846 770.178H600.779V766.855H601.846V770.178ZM619.92 762.412H616.98V761.51H619.92V762.412ZM614.656 760.867C614.656 761.633 614.517 762.348 614.239 763.014C613.961 763.679 613.567 764.258 613.057 764.75C612.551 765.242 611.963 765.62 611.293 765.885L610.705 764.996C611.316 764.782 611.854 764.47 612.318 764.06C612.783 763.645 613.141 763.164 613.392 762.617C613.647 762.066 613.777 761.482 613.781 760.867V759.582H614.656V760.867ZM614.834 760.908C614.834 761.46 614.962 761.991 615.217 762.501C615.472 763.007 615.827 763.456 616.283 763.848C616.739 764.24 617.258 764.536 617.842 764.736L617.254 765.598C616.607 765.356 616.037 765.003 615.545 764.538C615.053 764.069 614.668 763.522 614.39 762.897C614.112 762.273 613.973 761.61 613.973 760.908V759.582H614.834V760.908ZM620.768 771.107H619.688V767.676H612.592V766.814H620.768V771.107ZM620.768 766.145H619.688V758.953H620.768V766.145Z" fill="black"/>
<path opacity="0.3" d="M663.072 767.771H661.992V765.064H663.072V767.771ZM668.514 768.195H667.434V758.967H668.514V768.195ZM668.814 770.848H660.174V769.945H668.814V770.848ZM661.254 770.205H660.174V767.293H661.254V770.205ZM658.424 764.6C660.092 764.59 661.543 764.565 662.778 764.524C664.013 764.483 665.201 764.39 666.34 764.244L666.408 765.023C665.223 765.215 663.975 765.34 662.662 765.399C661.35 765.459 659.987 765.484 658.574 765.475L658.424 764.6ZM667.721 766.938H664.918V766.158H667.721V766.938ZM662.416 759.459C663.008 759.459 663.53 759.546 663.981 759.719C664.433 759.892 664.786 760.14 665.041 760.464C665.296 760.787 665.424 761.159 665.424 761.578C665.424 762.007 665.296 762.378 665.041 762.692C664.786 763.007 664.433 763.251 663.981 763.424C663.53 763.597 663.008 763.684 662.416 763.684C661.824 763.684 661.299 763.597 660.844 763.424C660.388 763.251 660.035 763.007 659.784 762.692C659.534 762.378 659.408 762.007 659.408 761.578C659.408 761.159 659.534 760.787 659.784 760.464C660.035 760.14 660.388 759.892 660.844 759.719C661.299 759.546 661.824 759.459 662.416 759.459ZM662.416 760.279C662.024 760.27 661.678 760.32 661.377 760.43C661.076 760.539 660.844 760.694 660.68 760.895C660.516 761.095 660.434 761.323 660.434 761.578C660.434 761.833 660.516 762.061 660.68 762.262C660.844 762.462 661.076 762.617 661.377 762.727C661.678 762.836 662.024 762.891 662.416 762.891C662.799 762.891 663.141 762.836 663.441 762.727C663.742 762.617 663.977 762.462 664.146 762.262C664.314 762.061 664.398 761.833 664.398 761.578C664.398 761.323 664.312 761.095 664.139 760.895C663.965 760.694 663.731 760.539 663.435 760.43C663.138 760.32 662.799 760.27 662.416 760.279ZM673.969 762.686C673.969 763.488 673.855 764.276 673.627 765.051C673.399 765.826 673.073 766.521 672.649 767.136C672.226 767.751 671.722 768.227 671.139 768.564L670.496 767.771C671.034 767.462 671.501 767.035 671.897 766.493C672.294 765.951 672.599 765.349 672.813 764.688C673.028 764.028 673.135 763.36 673.135 762.686V762.029H673.969V762.686ZM674.146 762.686C674.146 763.333 674.254 763.971 674.468 764.6C674.682 765.229 674.992 765.798 675.397 766.309C675.803 766.819 676.275 767.22 676.812 767.512L676.184 768.318C675.6 767.99 675.092 767.535 674.659 766.951C674.226 766.368 673.896 765.707 673.668 764.969C673.44 764.23 673.326 763.469 673.326 762.686V762.029H674.146V762.686ZM676.484 762.125H670.783V761.236H676.484V762.125ZM674.16 761.879H673.135V759.404H674.16V761.879ZM681.037 771.107H679.998V758.953H681.037V771.107ZM680.395 764.791H678.029V763.875H680.395V764.791ZM678.344 770.492H677.318V759.213H678.344V770.492ZM692.016 761.592H688.297V760.717H692.016V761.592ZM692.016 764.422H688.297V763.533H692.016V764.422ZM686.041 759.691C686.633 759.682 687.169 759.801 687.647 760.047C688.126 760.293 688.502 760.635 688.775 761.072C689.049 761.51 689.186 762.011 689.186 762.576C689.186 763.132 689.049 763.629 688.775 764.066C688.502 764.504 688.126 764.843 687.647 765.085C687.169 765.326 686.633 765.447 686.041 765.447C685.439 765.447 684.899 765.326 684.421 765.085C683.942 764.843 683.566 764.504 683.293 764.066C683.02 763.629 682.883 763.132 682.883 762.576C682.883 762.011 683.02 761.51 683.293 761.072C683.566 760.635 683.942 760.293 684.421 760.047C684.899 759.801 685.439 759.682 686.041 759.691ZM686.041 760.621C685.631 760.612 685.264 760.692 684.94 760.86C684.617 761.029 684.364 761.261 684.182 761.558C683.999 761.854 683.908 762.193 683.908 762.576C683.908 762.95 683.999 763.285 684.182 763.581C684.364 763.877 684.617 764.11 684.94 764.278C685.264 764.447 685.631 764.531 686.041 764.531C686.442 764.531 686.802 764.447 687.121 764.278C687.44 764.11 687.691 763.877 687.873 763.581C688.055 763.285 688.146 762.95 688.146 762.576C688.146 762.193 688.055 761.854 687.873 761.558C687.691 761.261 687.44 761.029 687.121 760.86C686.802 760.692 686.442 760.612 686.041 760.621ZM692.768 766.158H691.688V758.953H692.768V766.158ZM688.734 766.445C689.573 766.445 690.298 766.536 690.908 766.719C691.519 766.901 691.988 767.165 692.316 767.512C692.645 767.858 692.809 768.273 692.809 768.756C692.809 769.239 692.645 769.656 692.316 770.007C691.988 770.358 691.519 770.624 690.908 770.807C690.298 770.989 689.573 771.08 688.734 771.08C687.896 771.08 687.171 770.989 686.561 770.807C685.95 770.624 685.48 770.358 685.152 770.007C684.824 769.656 684.66 769.239 684.66 768.756C684.66 768.273 684.824 767.858 685.152 767.512C685.48 767.165 685.95 766.901 686.561 766.719C687.171 766.536 687.896 766.445 688.734 766.445ZM688.734 767.279C688.124 767.279 687.59 767.339 687.135 767.457C686.679 767.576 686.328 767.746 686.082 767.97C685.836 768.193 685.713 768.455 685.713 768.756C685.713 769.057 685.836 769.316 686.082 769.535C686.328 769.754 686.679 769.923 687.135 770.041C687.59 770.16 688.124 770.219 688.734 770.219C689.354 770.219 689.892 770.16 690.348 770.041C690.803 769.923 691.152 769.754 691.394 769.535C691.635 769.316 691.756 769.057 691.756 768.756C691.756 768.446 691.635 768.182 691.394 767.963C691.152 767.744 690.803 767.576 690.348 767.457C689.892 767.339 689.354 767.279 688.734 767.279Z" fill="black"/>
<path opacity="0.3" d="M736.904 759.746C736.904 760.749 736.67 761.66 736.2 762.48C735.731 763.301 735.059 764.003 734.184 764.586C733.309 765.169 732.27 765.625 731.066 765.953L730.629 765.105C731.695 764.823 732.614 764.442 733.384 763.964C734.154 763.485 734.746 762.927 735.161 762.289C735.576 761.651 735.783 760.958 735.783 760.211V759.746H736.904ZM736.385 760.621H731.271V759.746H736.385V760.621ZM740.527 765.83H739.461V758.967H740.527V765.83ZM740.527 770.943H732.625V766.418H740.527V770.943ZM733.678 770.068H739.475V767.279H733.678V770.068ZM743.863 767.184C744.921 767.184 745.771 767.163 746.413 767.122C747.056 767.081 747.705 767.001 748.361 766.883L748.457 767.771C747.783 767.899 747.113 767.986 746.447 768.031C745.782 768.077 744.921 768.1 743.863 768.1H743.084V767.184H743.863ZM747.896 761.236H744.109V767.525H743.084V760.361H747.896V761.236ZM747.719 764.436H743.795V763.574H747.719V764.436ZM753.01 771.107H751.971V758.953H753.01V771.107ZM752.367 764.736H749.988V763.848H752.367V764.736ZM750.303 770.492H749.264V759.213H750.303V770.492ZM763.879 762.098H760.557V761.236H763.879V762.098ZM763.797 764.627H760.461V763.738H763.797V764.627ZM764.768 766.268H763.688V758.967H764.768V766.268ZM761.008 759.869C761.008 760.89 760.778 761.82 760.317 762.658C759.857 763.497 759.201 764.215 758.349 764.812C757.496 765.409 756.482 765.885 755.307 766.24L754.855 765.393C755.904 765.083 756.801 764.679 757.549 764.183C758.296 763.686 758.868 763.112 759.265 762.46C759.661 761.808 759.859 761.104 759.859 760.348V759.869H761.008ZM760.584 760.771H755.471V759.869H760.584V760.771ZM760.789 766.391C761.609 766.391 762.325 766.484 762.936 766.671C763.546 766.858 764.016 767.124 764.344 767.471C764.672 767.817 764.836 768.232 764.836 768.715C764.836 769.198 764.672 769.615 764.344 769.966C764.016 770.317 763.546 770.586 762.936 770.772C762.325 770.959 761.609 771.053 760.789 771.053C759.969 771.053 759.253 770.959 758.643 770.772C758.032 770.586 757.56 770.317 757.228 769.966C756.895 769.615 756.729 769.198 756.729 768.715C756.729 768.232 756.895 767.817 757.228 767.471C757.56 767.124 758.032 766.858 758.643 766.671C759.253 766.484 759.969 766.391 760.789 766.391ZM760.789 767.252C760.188 767.243 759.659 767.298 759.203 767.416C758.747 767.535 758.396 767.705 758.15 767.929C757.904 768.152 757.781 768.414 757.781 768.715C757.781 769.016 757.904 769.275 758.15 769.494C758.396 769.713 758.745 769.882 759.196 770C759.647 770.118 760.178 770.178 760.789 770.178C761.391 770.178 761.915 770.118 762.361 770C762.808 769.882 763.154 769.713 763.4 769.494C763.646 769.275 763.77 769.016 763.77 768.715C763.77 768.414 763.646 768.152 763.4 767.929C763.154 767.705 762.808 767.535 762.361 767.416C761.915 767.298 761.391 767.243 760.789 767.252Z" fill="black"/>
</g>
<defs>
<clipPath id="clip0_508_1759">
<rect width="1440" height="780" fill="white"/>
</clipPath>
</defs>
</svg>
