<svg width="103" height="27" viewBox="0 0 103 27" fill="none" xmlns="http://www.w3.org/2000/svg">
<path d="M10.6653 20.252L4.22131 5.252H4.12531V18.656L6.21331 19.124V20H0.369313V19.124L2.48131 18.656V3.032L0.381313 2.588V1.724H7.59331L12.5253 13.964H12.6693L17.8173 1.724H23.9253V2.588L21.9453 3.056V18.62L23.9253 19.124V20H15.8373V19.124L17.8533 18.62V5.888H17.7573L11.7933 20.252H10.6653ZM27.0459 20.252C26.4459 20.252 25.9739 20.116 25.6299 19.844C25.2859 19.572 25.1139 19.192 25.1139 18.704C25.1139 18.488 25.1459 18.228 25.2099 17.924C25.2819 17.62 25.3899 17.312 25.5339 17L29.2779 9.008C29.3339 8.904 29.3659 8.82 29.3739 8.756C29.3899 8.684 29.3979 8.62 29.3979 8.564C29.3979 8.412 29.2979 8.336 29.0979 8.336C28.8259 8.336 28.4899 8.472 28.0899 8.744C27.6899 9.016 27.3059 9.376 26.9379 9.824L26.3379 9.344C26.9619 8.64 27.6259 8.104 28.3299 7.736C29.0419 7.36 29.7619 7.172 30.4899 7.172C31.1059 7.172 31.5899 7.304 31.9419 7.568C32.3019 7.832 32.4819 8.2 32.4819 8.672C32.4819 8.888 32.4459 9.148 32.3739 9.452C32.3099 9.756 32.2059 10.064 32.0619 10.376L28.3539 18.188C28.3059 18.276 28.2779 18.344 28.2699 18.392C28.2619 18.44 28.2579 18.488 28.2579 18.536C28.2579 18.768 28.3859 18.884 28.6419 18.884C28.8899 18.884 29.2059 18.736 29.5899 18.44C29.9739 18.144 30.5579 17.596 31.3419 16.796L31.9419 17.156C31.0779 18.188 30.2379 18.964 29.4219 19.484C28.6059 19.996 27.8139 20.252 27.0459 20.252ZM32.3619 4.76C31.8419 4.76 31.4299 4.62 31.1259 4.34C30.8219 4.06 30.6699 3.688 30.6699 3.224C30.6699 2.728 30.8659 2.296 31.2579 1.928C31.6579 1.552 32.1179 1.364 32.6379 1.364C33.1099 1.364 33.5179 1.512 33.8619 1.808C34.2139 2.096 34.3899 2.448 34.3899 2.864C34.3899 3.184 34.2899 3.488 34.0899 3.776C33.8979 4.064 33.6459 4.3 33.3339 4.484C33.0299 4.668 32.7059 4.76 32.3619 4.76ZM41.9176 20V19.364L43.6456 18.98V11.672C43.6456 10.712 43.4496 10 43.0576 9.536C42.6736 9.064 42.0656 8.828 41.2336 8.828C40.0656 8.828 39.1056 9.352 38.3536 10.4V9.236C38.9936 8.596 39.7096 8.092 40.5016 7.724C41.2936 7.356 42.1096 7.172 42.9496 7.172C45.3176 7.172 46.5016 8.352 46.5016 10.712V18.98L48.2896 19.364V20H41.9176ZM33.9736 20V19.364L35.7616 18.968V9.416L33.9736 8.744V8.336L38.1496 7.172H38.5096V9.26L38.6176 9.38V18.968L40.3576 19.364V20H33.9736ZM52.1418 20.252C51.2298 20.252 50.5178 19.964 50.0058 19.388C49.5018 18.812 49.2498 18.008 49.2498 16.976C49.2498 16.104 49.4178 15.212 49.7538 14.3C50.0978 13.38 50.5578 12.496 51.1338 11.648C51.7178 10.8 52.3778 10.04 53.1138 9.368C53.8498 8.696 54.6178 8.164 55.4178 7.772C56.2178 7.372 57.0018 7.172 57.7698 7.172C58.3138 7.172 58.7738 7.26 59.1498 7.436C59.5338 7.612 59.8818 7.896 60.1938 8.288L63.0258 1.304L61.1058 1.004L61.0098 0.535999H66.4338L59.4018 18.056C59.3058 18.328 59.2738 18.536 59.3058 18.68C59.3378 18.816 59.4378 18.884 59.6058 18.884C59.7738 18.884 59.9618 18.816 60.1698 18.68C60.3778 18.544 60.6498 18.316 60.9858 17.996C61.3298 17.668 61.7778 17.216 62.3298 16.64L62.9298 17.012C61.9938 18.148 61.1498 18.972 60.3978 19.484C59.6538 19.996 58.9018 20.252 58.1418 20.252C57.5658 20.252 57.1338 20.12 56.8458 19.856C56.5658 19.584 56.4258 19.188 56.4258 18.668C56.4258 18.356 56.4938 18.012 56.6298 17.636C56.7658 17.26 56.9698 16.788 57.2418 16.22L57.1218 16.172C56.1618 17.636 55.2938 18.684 54.5178 19.316C53.7418 19.94 52.9498 20.252 52.1418 20.252ZM52.9458 19.22C53.2658 19.22 53.6778 18.992 54.1818 18.536C54.6858 18.08 55.2258 17.468 55.8018 16.7C56.3778 15.932 56.9418 15.068 57.4938 14.108C58.0458 13.148 58.5338 12.164 58.9578 11.156C59.1658 10.66 59.3058 10.284 59.3778 10.028C59.4578 9.764 59.4978 9.528 59.4978 9.32C59.4578 8.552 59.0898 8.168 58.3938 8.168C57.9538 8.168 57.4618 8.392 56.9178 8.84C56.3738 9.288 55.8258 9.88 55.2738 10.616C54.7218 11.352 54.2138 12.156 53.7498 13.028C53.2938 13.9 52.9258 14.768 52.6458 15.632C52.3658 16.496 52.2258 17.276 52.2258 17.972C52.2258 18.372 52.2898 18.68 52.4178 18.896C52.5458 19.112 52.7218 19.22 52.9458 19.22ZM67.9533 20.252C67.0973 20.252 66.4013 19.984 65.8653 19.448C65.3373 18.912 65.0733 18.216 65.0733 17.36C65.0733 16.656 65.2893 16.048 65.7213 15.536C66.1533 15.024 66.8493 14.576 67.8093 14.192C68.7773 13.8 70.0533 13.444 71.6373 13.124V10.88C71.6373 9.864 71.4973 9.152 71.2173 8.744C70.9453 8.336 70.4733 8.132 69.8013 8.132C69.1373 8.132 68.6093 8.292 68.2173 8.612C67.8253 8.932 67.6293 9.364 67.6293 9.908C67.6293 10.06 67.6373 10.212 67.6533 10.364C67.6773 10.508 67.6893 10.648 67.6893 10.784C67.6893 11.192 67.5653 11.528 67.3173 11.792C67.0773 12.056 66.7693 12.188 66.3933 12.188C66.0493 12.188 65.7693 12.076 65.5533 11.852C65.3453 11.628 65.2413 11.336 65.2413 10.976C65.2413 10.456 65.4653 9.924 65.9133 9.38C66.3693 8.828 66.9693 8.356 67.7133 7.964C68.7053 7.436 69.7813 7.172 70.9413 7.172C71.6373 7.172 72.2253 7.28 72.7053 7.496C73.1933 7.712 73.5453 8.02 73.7613 8.42C73.8893 8.692 73.9733 9.036 74.0133 9.452C74.0613 9.868 74.0853 10.564 74.0853 11.54V16.904C74.0853 17.68 74.1453 18.208 74.2653 18.488C74.3933 18.768 74.6293 18.908 74.9733 18.908C75.3653 18.908 75.7453 18.684 76.1133 18.236L76.5453 18.644C76.1533 19.212 75.7533 19.624 75.3453 19.88C74.9453 20.128 74.4773 20.252 73.9413 20.252C73.2933 20.252 72.7893 20.076 72.4293 19.724C72.0693 19.372 71.8293 18.836 71.7093 18.116H71.6373C71.1813 18.772 70.6293 19.292 69.9813 19.676C69.3333 20.06 68.6573 20.252 67.9533 20.252ZM69.1533 18.728C69.6493 18.728 70.1133 18.6 70.5453 18.344C70.9773 18.08 71.3413 17.716 71.6373 17.252V13.868C70.5653 14.076 69.7213 14.304 69.1053 14.552C68.4973 14.8 68.0653 15.104 67.8093 15.464C67.5613 15.816 67.4373 16.26 67.4373 16.796C67.4373 17.412 67.5813 17.888 67.8693 18.224C68.1653 18.56 68.5933 18.728 69.1533 18.728ZM76.7096 20L81.1736 9.056C81.2216 8.936 81.2576 8.836 81.2816 8.756C81.3056 8.676 81.3176 8.612 81.3176 8.564C81.3176 8.444 81.2456 8.384 81.1016 8.384C80.9176 8.384 80.6616 8.476 80.3336 8.66C80.0136 8.844 79.6856 9.08 79.3496 9.368C79.0136 9.648 78.7256 9.94 78.4856 10.244L77.8496 9.728C78.5376 8.92 79.3176 8.292 80.1896 7.844C81.0616 7.396 81.9456 7.172 82.8416 7.172C83.4416 7.172 83.8776 7.28 84.1496 7.496C84.4216 7.712 84.5576 8.056 84.5576 8.528C84.5576 8.848 84.4776 9.236 84.3176 9.692C84.1576 10.148 83.8776 10.692 83.4776 11.324L83.6336 11.36C84.4576 10.048 85.2176 9.024 85.9136 8.288C86.6096 7.544 87.3656 7.172 88.1816 7.172C88.7576 7.172 89.2336 7.336 89.6096 7.664C89.9856 7.992 90.1736 8.42 90.1736 8.948C90.1736 9.412 90.0256 9.772 89.7296 10.028C89.4416 10.284 89.1136 10.412 88.7456 10.412C88.3696 10.412 88.0856 10.304 87.8936 10.088C87.7016 9.872 87.5336 9.66 87.3896 9.452C87.2456 9.236 87.0576 9.128 86.8256 9.128C86.5456 9.128 86.2056 9.336 85.8056 9.752C85.4056 10.16 84.9776 10.708 84.5216 11.396C84.0736 12.084 83.6216 12.852 83.1656 13.7C82.7096 14.548 82.2816 15.408 81.8816 16.28L80.1776 20H76.7096ZM88.667 26.108C87.963 26.108 87.343 25.944 86.807 25.616C86.271 25.288 86.003 24.868 86.003 24.356C86.003 23.98 86.155 23.644 86.459 23.348C86.763 23.052 87.127 22.904 87.551 22.904C87.887 22.904 88.147 22.988 88.331 23.156C88.515 23.332 88.675 23.532 88.811 23.756C88.947 23.988 89.099 24.188 89.267 24.356C89.427 24.532 89.655 24.62 89.951 24.62C90.087 24.62 90.335 24.572 90.695 24.476C91.063 24.388 91.471 24.148 91.919 23.756C92.063 23.636 92.195 23.496 92.315 23.336C92.435 23.176 92.543 22.948 92.639 22.652C92.735 22.364 92.815 21.968 92.879 21.464C92.951 20.96 93.003 20.308 93.035 19.508C93.075 18.7 93.095 17.704 93.095 16.52C93.095 14.848 93.075 13.492 93.035 12.452C93.003 11.412 92.943 10.616 92.855 10.064C92.775 9.512 92.659 9.136 92.507 8.936C92.363 8.728 92.179 8.624 91.955 8.624C91.451 8.624 90.827 9.084 90.083 10.004L89.399 9.656C89.967 8.888 90.639 8.284 91.415 7.844C92.199 7.396 92.971 7.172 93.731 7.172C94.219 7.172 94.627 7.288 94.955 7.52C95.283 7.744 95.543 8.112 95.735 8.624C95.935 9.128 96.075 9.796 96.155 10.628C96.243 11.46 96.287 12.484 96.287 13.7C96.287 14.484 96.243 15.44 96.155 16.568C96.075 17.688 95.963 18.92 95.819 20.264L95.915 20.3C96.787 19.3 97.507 18.288 98.075 17.264C98.643 16.232 99.067 15.224 99.347 14.24C99.627 13.256 99.767 12.324 99.767 11.444C99.767 11.148 99.743 10.852 99.695 10.556C99.655 10.252 99.611 9.964 99.563 9.692C99.515 9.412 99.491 9.164 99.491 8.948C99.491 8.42 99.643 7.992 99.947 7.664C100.259 7.336 100.667 7.172 101.171 7.172C101.699 7.172 102.095 7.36 102.359 7.736C102.623 8.112 102.755 8.668 102.755 9.404C102.755 10.268 102.587 11.208 102.251 12.224C101.923 13.24 101.467 14.284 100.883 15.356C100.299 16.42 99.623 17.472 98.855 18.512C98.095 19.544 97.279 20.516 96.407 21.428C95.535 22.348 94.647 23.156 93.743 23.852C92.839 24.556 91.951 25.108 91.079 25.508C90.215 25.908 89.411 26.108 88.667 26.108Z" fill="black"/>
</svg>
