<svg width="72" height="20" viewBox="0 0 72 20" fill="none" xmlns="http://www.w3.org/2000/svg">
<path d="M1.29297 15L4.28125 0.683594H6.63477L8.08008 9.96094C8.26888 11.1784 8.39258 12.347 8.45117 13.4668C8.84831 12.5033 9.51237 11.1979 10.4434 9.55078L15.4629 0.683594H17.8555L14.8672 15H12.9824L14.4766 8.03711C14.8216 6.42904 15.3164 4.62565 15.9609 2.62695C15.5508 3.55794 15.043 4.56055 14.4375 5.63477L9.10547 15H7.25977L5.82422 5.82031C5.69401 4.98047 5.59961 4.00065 5.54102 2.88086C5.37826 4.13737 5.21875 5.13346 5.0625 5.86914L3.1582 15H1.29297ZM20.248 2.68555L20.668 0.683594H22.4258L22.0059 2.68555H20.248ZM17.6699 15L19.8379 4.62891H21.6055L19.4375 15H17.6699ZM22.1914 15L24.3594 4.62891H25.9609L25.5801 6.43555C26.2767 5.72591 26.9277 5.20833 27.5332 4.88281C28.1387 4.55729 28.7572 4.39453 29.3887 4.39453C30.2285 4.39453 30.8861 4.6224 31.3613 5.07812C31.8431 5.53385 32.084 6.14258 32.084 6.9043C32.084 7.28841 31.9993 7.89388 31.8301 8.7207L30.5117 15H28.7441L30.1211 8.42773C30.2578 7.78971 30.3262 7.31771 30.3262 7.01172C30.3262 6.66667 30.2057 6.38672 29.9648 6.17188C29.7305 5.95703 29.3887 5.84961 28.9395 5.84961C28.0345 5.84961 27.2272 6.17513 26.5176 6.82617C25.8145 7.47721 25.2969 8.59375 24.9648 10.1758L23.959 15H22.1914ZM40.3164 13.4961C39.3073 14.6549 38.2526 15.2344 37.1523 15.2344C36.1693 15.2344 35.349 14.873 34.6914 14.1504C34.0404 13.4212 33.7148 12.3665 33.7148 10.9863C33.7148 9.72331 33.972 8.57096 34.4863 7.5293C35.0072 6.48112 35.6549 5.69661 36.4297 5.17578C37.2109 4.65495 37.9922 4.39453 38.7734 4.39453C40.0625 4.39453 41.0358 5.01628 41.6934 6.25977L42.8652 0.683594H44.623L41.6348 15H40.0039L40.3164 13.4961ZM35.4727 10.6543C35.4727 11.377 35.5443 11.9466 35.6875 12.3633C35.8307 12.7799 36.0749 13.1283 36.4199 13.4082C36.765 13.6816 37.1784 13.8184 37.6602 13.8184C38.4609 13.8184 39.1868 13.4017 39.8379 12.5684C40.7103 11.4616 41.1465 10.0944 41.1465 8.4668C41.1465 7.64648 40.9316 7.00521 40.502 6.54297C40.0723 6.08073 39.5319 5.84961 38.8809 5.84961C38.4577 5.84961 38.0703 5.94401 37.7188 6.13281C37.3737 6.32161 37.0286 6.64388 36.6836 7.09961C36.3451 7.54883 36.0586 8.12174 35.8242 8.81836C35.5898 9.51497 35.4727 10.127 35.4727 10.6543ZM51.8789 13.7207C51.2279 14.2741 50.5996 14.6647 49.9941 14.8926C49.3952 15.1204 48.7507 15.2344 48.0605 15.2344C46.9212 15.2344 46.0456 14.9577 45.4336 14.4043C44.8216 13.8444 44.5156 13.1315 44.5156 12.2656C44.5156 11.7578 44.6296 11.2956 44.8574 10.8789C45.0918 10.4557 45.3945 10.1172 45.7656 9.86328C46.1432 9.60938 46.5664 9.41732 47.0352 9.28711C47.3802 9.19596 47.901 9.10807 48.5977 9.02344C50.0169 8.85417 51.0618 8.65234 51.7324 8.41797C51.7389 8.17708 51.7422 8.02409 51.7422 7.95898C51.7422 7.24284 51.5762 6.73828 51.2441 6.44531C50.7949 6.04818 50.1276 5.84961 49.2422 5.84961C48.4154 5.84961 47.8034 5.99609 47.4062 6.28906C47.0156 6.57552 46.7259 7.08659 46.5371 7.82227L44.8184 7.58789C44.9746 6.85221 45.2318 6.25977 45.5898 5.81055C45.9479 5.35482 46.4655 5.00651 47.1426 4.76562C47.8197 4.51823 48.6042 4.39453 49.4961 4.39453C50.3815 4.39453 51.1009 4.4987 51.6543 4.70703C52.2077 4.91536 52.6146 5.17904 52.875 5.49805C53.1354 5.81055 53.3177 6.20768 53.4219 6.68945C53.4805 6.98893 53.5098 7.5293 53.5098 8.31055V10.6543C53.5098 12.2884 53.5456 13.3236 53.6172 13.7598C53.6953 14.1895 53.8451 14.6029 54.0664 15H52.2305C52.0482 14.6354 51.931 14.209 51.8789 13.7207ZM51.7324 9.79492C51.0944 10.0553 50.1374 10.2767 48.8613 10.459C48.1387 10.5632 47.6276 10.6803 47.3281 10.8105C47.0286 10.9408 46.7975 11.1328 46.6348 11.3867C46.472 11.6341 46.3906 11.9108 46.3906 12.2168C46.3906 12.6855 46.5664 13.0762 46.918 13.3887C47.276 13.7012 47.7969 13.8574 48.4805 13.8574C49.1576 13.8574 49.7598 13.7109 50.2871 13.418C50.8145 13.1185 51.2018 12.7116 51.4492 12.1973C51.638 11.8001 51.7324 11.2142 51.7324 10.4395V9.79492ZM56.2246 15V4.62891H57.8066V6.20117C58.2103 5.46549 58.5814 4.98047 58.9199 4.74609C59.265 4.51172 59.6426 4.39453 60.0527 4.39453C60.6452 4.39453 61.2474 4.58333 61.8594 4.96094L61.2539 6.5918C60.8242 6.33789 60.3945 6.21094 59.9648 6.21094C59.5807 6.21094 59.2357 6.32812 58.9297 6.5625C58.6237 6.79036 58.4056 7.10938 58.2754 7.51953C58.0801 8.14453 57.9824 8.82812 57.9824 9.57031V15H56.2246ZM62.8262 18.9941L62.6309 17.3438C63.015 17.4479 63.3503 17.5 63.6367 17.5C64.0273 17.5 64.3398 17.4349 64.5742 17.3047C64.8086 17.1745 65.0007 16.9922 65.1504 16.7578C65.2611 16.582 65.4401 16.1458 65.6875 15.4492C65.7201 15.3516 65.7721 15.2083 65.8438 15.0195L61.9082 4.62891H63.8027L65.9609 10.6348C66.2409 11.3965 66.4915 12.1973 66.7129 13.0371C66.9147 12.2298 67.1556 11.4421 67.4355 10.6738L69.6523 4.62891H71.4102L67.4648 15.1758C67.0417 16.3151 66.7129 17.0996 66.4785 17.5293C66.166 18.1087 65.8079 18.5319 65.4043 18.7988C65.0007 19.0723 64.5189 19.209 63.959 19.209C63.6204 19.209 63.2428 19.1374 62.8262 18.9941Z" fill="white"/>
<path d="M0.414062 17.8516H17.0742V19.3164H0.414062V17.8516Z" fill="white"/>
</svg>
